<svg xmlns="http://www.w3.org/2000/svg" xmlns:xlink="http://www.w3.org/1999/xlink" preserveAspectRatio="xMidYMid" width="28.97" height="26" viewBox="0 0 28.97 26">
  <defs>
    <style>
      .cls-1 {
        fill: #333;
        fill-rule: evenodd;
      }
    </style>
  </defs>
  <path d="M28.515,4.810 C28.033,4.322 27.095,4.337 27.095,4.337 L7.807,4.337 C7.108,1.019 6.657,-0.000 4.500,-0.000 L0.000,-0.000 L0.943,2.049 L4.520,2.064 C4.520,2.064 5.350,2.064 5.562,3.293 L8.505,17.777 C8.505,17.777 8.843,19.986 11.452,19.986 L24.309,19.986 C26.043,19.986 26.152,18.050 26.152,18.050 L12.356,18.050 C12.356,18.050 10.562,18.185 10.283,16.071 L9.629,12.968 L26.903,12.942 C27.660,12.918 28.303,12.335 28.392,11.544 L28.982,6.107 C29.036,5.600 28.996,5.291 28.515,4.810 ZM26.481,10.759 L9.163,10.759 L8.327,6.803 L26.903,6.803 L26.481,10.759 ZM23.744,23.775 C23.744,22.553 22.762,21.557 21.553,21.557 C20.340,21.557 19.357,22.553 19.357,23.775 C19.357,25.004 20.340,26.000 21.553,26.000 C22.762,26.000 23.744,25.004 23.744,23.775 ZM14.969,23.775 C14.969,20.842 10.587,20.847 10.587,23.775 C10.587,25.004 11.564,26.000 12.779,26.000 C13.987,26.000 14.969,25.004 14.969,23.775 Z" class="cls-1"/>
</svg>
