<svg xmlns="http://www.w3.org/2000/svg" xmlns:xlink="http://www.w3.org/1999/xlink" preserveAspectRatio="xMidYMid" width="28" height="26" viewBox="0 0 28 26">
  <defs>
    <style>
      .cls-1 {
        fill: #333;
        fill-rule: evenodd;
      }
    </style>
  </defs>
  <path d="M26.999,2.002 L0.996,2.002 C0.444,2.002 -0.000,1.552 -0.000,1.001 C-0.000,0.449 0.444,-0.000 0.996,-0.000 L26.999,-0.000 C27.551,-0.000 28.000,0.449 28.000,1.001 C28.000,1.552 27.551,2.002 26.999,2.002 L26.999,2.002 ZM26.999,10.000 L9.000,10.000 C8.448,10.000 7.999,9.550 7.999,8.998 C7.999,8.447 8.448,7.997 9.000,7.997 L26.999,7.997 C27.551,7.997 28.000,8.447 28.000,8.998 C28.000,9.550 27.551,10.000 26.999,10.000 L26.999,10.000 ZM11.998,23.998 L26.999,23.998 C27.551,23.998 28.000,24.447 28.000,24.999 C28.000,25.550 27.551,26.000 26.999,26.000 L11.998,26.000 C11.446,26.000 10.997,25.550 10.997,24.999 C10.997,24.447 11.446,23.998 11.998,23.998 L11.998,23.998 ZM0.996,16.000 L26.999,16.000 C27.551,16.000 28.000,16.449 28.000,17.002 C28.000,17.553 27.551,17.996 26.999,17.996 L0.996,17.996 C0.444,17.996 -0.000,17.553 -0.000,17.002 C-0.000,16.449 0.444,16.000 0.996,16.000 L0.996,16.000 ZM0.996,16.000 L0.996,16.000 Z" class="cls-1"/>
</svg>
