<svg xmlns="http://www.w3.org/2000/svg" xmlns:xlink="http://www.w3.org/1999/xlink" preserveAspectRatio="xMidYMid" width="40.031" height="35" viewBox="0 0 40.031 35">
  <defs>
    <style>
      .cls-1 {
        fill: #fff;
        fill-rule: evenodd;
      }
    </style>
  </defs>
  <path d="M6.646,27.587 C10.961,27.125 15.459,26.890 20.013,26.890 C24.757,26.890 29.434,27.145 33.913,27.646 C34.440,27.705 34.818,28.176 34.759,28.697 C34.704,29.181 34.288,29.539 33.807,29.539 C33.771,29.539 33.735,29.537 33.698,29.533 C29.290,29.040 24.686,28.789 20.013,28.789 C15.527,28.789 11.099,29.020 6.853,29.476 C6.325,29.533 5.853,29.155 5.796,28.634 C5.739,28.113 6.119,27.644 6.646,27.587 L6.646,27.587 ZM18.203,17.734 C18.385,17.893 18.612,17.971 18.837,17.971 C19.103,17.971 19.367,17.863 19.557,17.649 C19.907,17.256 19.869,16.656 19.472,16.309 C17.622,14.694 18.013,11.416 19.599,9.565 C20.688,8.293 21.326,6.565 21.352,4.825 C21.379,2.949 20.711,1.319 19.472,0.237 C19.075,-0.110 18.469,-0.072 18.118,0.322 C17.768,0.714 17.806,1.315 18.203,1.661 C19.864,3.113 19.831,6.357 18.135,8.337 C15.971,10.864 15.467,15.344 18.203,17.734 L18.203,17.734 ZM24.230,9.252 C23.703,9.187 23.224,9.555 23.158,10.075 C23.092,10.595 23.464,11.070 23.990,11.136 C26.848,11.491 29.237,12.283 31.189,13.376 L28.184,16.350 C27.810,16.721 27.810,17.322 28.184,17.692 C28.558,18.063 29.166,18.063 29.541,17.692 L32.828,14.438 C33.406,14.869 33.933,15.330 34.411,15.815 L28.421,21.745 C28.047,22.116 28.047,22.717 28.421,23.088 C28.796,23.459 29.403,23.459 29.778,23.088 L35.652,17.273 C36.122,17.915 36.522,18.587 36.854,19.279 L34.115,21.990 C33.740,22.360 33.740,22.962 34.115,23.333 C34.490,23.704 35.097,23.704 35.472,23.333 L37.600,21.226 C38.022,22.679 38.179,24.176 38.086,25.639 C37.851,29.347 35.846,33.101 32.465,33.101 L7.561,33.101 C4.223,33.101 2.549,30.006 2.095,27.110 C1.265,21.815 3.926,15.357 10.536,12.628 C10.361,14.515 10.890,16.434 12.379,17.734 C12.776,18.080 13.382,18.043 13.732,17.649 C14.083,17.256 14.045,16.656 13.647,16.309 C11.798,14.695 12.189,11.416 13.774,9.565 C14.863,8.293 15.502,6.565 15.527,4.825 C15.554,2.949 14.887,1.319 13.648,0.237 C13.251,-0.110 12.645,-0.072 12.294,0.322 C11.943,0.714 11.981,1.315 12.378,1.661 C14.040,3.113 14.007,6.357 12.311,8.337 C11.799,8.935 11.380,9.642 11.075,10.404 C2.618,13.161 -0.801,21.018 0.200,27.402 C0.923,32.018 3.812,35.000 7.561,35.000 L32.465,35.000 C36.493,35.000 39.662,31.113 40.001,25.758 C40.455,18.575 35.755,10.685 24.230,9.252 L24.230,9.252 ZM24.230,9.252 L24.230,9.252 Z" class="cls-1"/>
</svg>
