<svg xmlns="http://www.w3.org/2000/svg" xmlns:xlink="http://www.w3.org/1999/xlink" preserveAspectRatio="xMidYMid" width="26" height="26" viewBox="0 0 26 26">
  <defs>
    <style>
      .cls-1 {
        fill: #dedede;
        fill-rule: evenodd;
      }
    </style>
  </defs>
  <path d="M20.507,8.550 L18.458,3.475 C18.096,3.818 17.632,4.041 17.121,4.086 L19.169,9.159 C19.327,9.551 19.755,9.733 20.125,9.566 C20.494,9.397 20.666,8.943 20.507,8.550 ZM7.541,3.475 L5.493,8.550 C5.334,8.943 5.505,9.397 5.875,9.565 C6.245,9.733 6.673,9.551 6.831,9.159 L8.879,4.086 C8.368,4.041 7.904,3.818 7.541,3.475 ZM24.976,7.867 L23.639,7.867 L21.229,7.867 L21.349,8.167 C21.523,8.595 21.528,9.070 21.365,9.503 C21.202,9.935 20.889,10.275 20.486,10.459 C20.279,10.552 20.062,10.600 19.838,10.600 C19.180,10.600 18.586,10.185 18.327,9.542 L17.651,7.867 L13.000,7.867 L8.349,7.867 L7.673,9.542 C7.414,10.185 6.820,10.600 6.161,10.600 C5.938,10.600 5.720,10.552 5.514,10.459 C4.681,10.080 4.294,9.051 4.650,8.167 L4.771,7.867 L2.362,7.867 L1.024,7.867 L-0.000,7.867 L-0.000,11.631 L1.694,11.631 L24.306,11.631 L26.000,11.631 L26.000,7.867 L24.976,7.867 ZM18.475,1.643 C18.475,0.735 17.782,-0.000 16.927,-0.000 C16.072,-0.000 15.378,0.735 15.378,1.643 C15.378,2.551 16.072,3.287 16.927,3.287 C17.782,3.287 18.475,2.551 18.475,1.643 ZM10.622,1.643 C10.622,0.735 9.929,-0.000 9.073,-0.000 C8.219,-0.000 7.525,0.735 7.525,1.643 C7.525,2.551 8.219,3.287 9.073,3.287 C9.929,3.287 10.622,2.551 10.622,1.643 ZM1.694,12.930 L4.021,26.000 L13.000,26.000 L21.979,26.000 L24.306,12.930 L1.694,12.930 ZM20.584,23.164 L5.416,23.164 C5.115,23.164 4.870,22.904 4.870,22.584 C4.870,22.264 5.115,22.005 5.416,22.005 L20.584,22.005 C20.885,22.005 21.130,22.264 21.130,22.584 C21.130,22.904 20.885,23.164 20.584,23.164 ZM21.043,20.040 L4.957,20.040 C4.655,20.040 4.411,19.780 4.411,19.461 C4.411,19.140 4.655,18.881 4.957,18.881 L21.043,18.881 C21.345,18.881 21.589,19.140 21.589,19.461 C21.589,19.780 21.345,20.040 21.043,20.040 ZM21.509,16.902 L4.491,16.902 C4.197,16.902 3.958,16.649 3.958,16.336 C3.958,16.024 4.197,15.770 4.491,15.770 L21.509,15.770 C21.803,15.770 22.042,16.024 22.042,16.336 C22.042,16.649 21.803,16.902 21.509,16.902 Z" class="cls-1"/>
</svg>
