<svg xmlns="http://www.w3.org/2000/svg" xmlns:xlink="http://www.w3.org/1999/xlink" preserveAspectRatio="xMidYMid" width="40" height="40" viewBox="0 0 40 40">
  <defs>
    <style>
      .cls-1 {
        fill: #fff;
        fill-rule: evenodd;
      }
    </style>
  </defs>
  <path d="M6.467,9.191 C4.871,9.925 3.499,10.849 2.663,12.339 C1.941,13.623 1.305,14.954 0.632,16.265 C-0.321,18.119 -0.187,19.948 0.974,21.629 C1.651,22.608 1.634,23.366 1.186,24.485 C-0.117,27.736 0.146,29.509 2.811,31.931 C4.597,33.555 6.755,34.515 9.057,35.085 C10.142,37.490 11.336,38.185 13.828,38.627 C15.860,38.987 17.890,38.862 19.859,38.317 C21.051,37.986 21.968,38.036 22.994,38.862 C23.732,39.455 24.792,39.815 25.755,39.946 C28.865,40.368 32.001,38.259 32.855,35.261 C33.091,34.430 33.413,33.888 34.245,33.395 C36.173,32.254 37.578,30.511 38.420,28.456 C38.725,27.710 38.736,26.623 38.409,25.901 C37.918,24.814 38.079,24.007 38.693,23.122 C38.961,22.735 39.164,22.302 39.375,21.879 C40.576,19.474 40.040,17.264 37.822,15.652 C36.829,14.930 35.780,14.284 34.791,13.626 C35.406,10.768 35.403,10.769 34.364,7.764 C34.171,7.206 34.012,6.636 33.839,6.072 C33.151,3.833 31.941,2.873 29.563,2.760 C28.731,2.720 27.893,2.805 27.058,2.820 C26.421,2.831 25.784,2.822 25.227,2.822 L24.800,2.005 C23.875,0.306 23.207,-0.080 21.333,0.429 C20.029,0.783 18.799,1.412 17.549,1.950 C17.172,2.112 16.865,2.439 16.485,2.591 C15.139,3.125 13.776,3.617 12.268,4.182 C12.223,4.142 11.995,3.960 11.790,3.754 C10.742,2.705 9.735,1.615 8.647,0.608 C7.665,-0.302 6.880,-0.180 6.151,0.900 C5.754,1.489 5.354,2.082 5.022,2.706 C4.249,4.160 4.136,5.607 5.137,7.038 C5.605,7.705 5.997,8.424 6.467,9.191 ZM21.161,33.298 C17.531,33.003 16.010,31.799 16.136,29.365 C16.743,29.071 17.390,28.780 18.013,28.445 C18.378,28.248 18.795,28.045 19.020,27.727 C19.269,27.376 19.568,26.722 19.412,26.503 C19.167,26.160 18.562,25.929 18.101,25.914 C17.525,25.895 16.944,26.165 16.358,26.269 C15.906,26.349 15.443,26.364 14.967,26.409 L13.739,22.683 C12.349,24.150 12.332,25.835 12.195,27.432 C12.135,28.132 12.655,28.744 13.410,29.030 C13.771,29.168 14.109,29.363 14.862,29.729 C14.202,29.854 13.961,29.960 13.737,29.932 C12.612,29.788 11.489,29.632 10.373,29.435 C8.894,29.175 8.815,29.095 8.673,27.656 C8.580,26.722 8.557,25.781 8.489,24.610 C8.221,24.995 7.995,25.213 7.902,25.476 C7.726,25.975 7.625,26.499 7.497,27.015 C6.803,29.808 6.976,30.233 9.395,31.687 C6.644,32.232 3.057,29.344 3.166,26.695 C3.206,25.718 3.486,24.876 4.116,24.093 C4.916,23.098 4.768,22.450 3.744,21.777 C1.759,20.471 1.274,19.097 2.243,16.973 C3.122,15.047 4.095,13.149 6.096,11.748 C5.890,12.770 5.702,13.647 5.540,14.529 C5.466,14.933 5.407,15.348 5.403,15.758 C5.385,17.815 6.650,18.568 8.421,17.562 C8.676,17.418 8.899,17.219 9.263,16.952 C9.624,17.568 9.955,18.160 10.312,18.737 C10.893,19.672 11.688,20.206 12.852,19.959 C13.932,19.729 14.577,18.944 14.702,17.638 C14.758,17.057 14.712,16.466 14.712,15.766 C15.321,15.845 15.824,15.943 16.331,15.972 C18.490,16.094 19.393,15.004 18.905,12.877 C18.854,12.655 18.774,12.439 18.715,12.248 C18.840,12.119 18.905,11.993 19.002,11.959 C21.180,11.195 21.499,10.673 21.170,8.430 C20.922,6.745 20.276,5.263 18.997,4.081 C18.743,3.847 18.538,3.562 18.110,3.068 L22.729,1.901 C22.921,2.408 23.034,2.670 23.121,2.939 C23.640,4.551 23.809,4.688 25.473,4.851 C26.720,4.973 27.966,5.116 29.214,5.218 C30.415,5.317 31.220,5.834 31.524,7.054 C31.780,8.084 32.095,9.101 32.429,10.109 C32.773,11.146 32.398,12.087 32.108,13.042 C31.544,14.892 31.777,15.419 33.549,16.228 C33.925,16.400 34.332,16.530 34.665,16.764 C37.355,18.651 37.513,19.869 36.425,22.279 C35.855,23.541 35.408,24.754 35.797,26.186 C35.931,26.683 35.769,27.403 35.473,27.844 C34.416,29.420 33.253,30.928 31.440,31.757 C31.223,31.856 31.001,31.949 30.800,32.074 C29.766,32.711 29.810,33.397 30.921,33.973 C31.121,34.076 31.335,34.152 31.667,34.294 C31.014,36.387 29.181,36.592 27.568,36.926 C25.616,37.330 24.503,36.696 23.432,34.887 C24.579,34.076 26.695,34.224 26.682,31.906 C26.184,31.964 25.848,31.986 25.518,32.044 C23.928,32.324 23.722,32.206 23.213,30.649 C23.012,30.034 22.836,29.413 22.630,28.800 C22.598,28.702 22.468,28.636 22.309,28.484 C20.705,29.743 21.240,31.537 21.161,33.298 ZM19.045,9.858 C18.277,9.762 17.706,9.606 17.147,9.643 C16.672,9.675 16.100,9.811 15.774,10.114 C15.399,10.463 15.668,10.903 15.966,11.350 C16.401,12.003 16.623,12.793 16.972,13.610 C15.760,13.935 15.006,13.567 14.308,12.961 C13.878,12.588 13.456,11.913 12.811,12.392 C12.202,12.844 12.743,13.456 12.843,14.012 C13.029,15.048 13.164,16.097 13.235,17.147 C13.254,17.429 12.966,17.731 12.806,18.047 C11.745,17.742 11.441,17.003 11.377,16.144 C11.325,15.441 11.459,14.716 11.343,14.027 C11.265,13.570 10.991,12.925 10.633,12.780 C9.931,12.497 9.832,13.235 9.636,13.710 C8.961,15.342 8.338,15.993 6.791,16.555 C6.626,14.557 7.282,12.860 8.119,11.192 L9.975,11.192 C9.782,10.036 9.074,9.361 8.382,8.659 C7.803,8.071 7.217,7.474 6.744,6.805 C5.422,4.934 5.577,3.854 7.410,2.096 C8.329,3.332 9.175,4.608 10.168,5.761 C10.968,6.691 11.871,7.571 12.863,8.292 C13.869,9.023 14.035,8.903 15.069,7.737 L14.007,6.199 C14.882,5.436 15.821,4.761 16.999,5.353 C18.690,6.203 19.103,7.773 19.045,9.858 ZM10.815,31.934 L14.634,31.265 C15.086,31.924 15.545,32.831 16.229,33.522 C16.853,34.151 17.720,34.547 18.542,35.087 C16.718,35.635 14.808,35.579 12.917,35.193 C12.495,35.108 12.090,34.562 11.836,34.135 C11.428,33.445 11.152,32.679 10.815,31.934 ZM18.249,21.513 C18.140,21.794 18.005,21.962 18.030,22.102 C18.353,23.863 21.174,26.197 22.935,26.170 C23.540,26.161 23.945,25.907 23.979,25.131 L18.249,21.513 ZM27.172,19.958 C25.989,18.759 24.940,17.659 23.843,16.609 C23.534,16.312 23.086,16.157 22.702,15.938 C22.502,16.393 22.090,16.874 22.141,17.301 C22.318,18.785 23.373,19.610 24.651,20.272 C25.576,20.750 26.328,20.685 27.172,19.958 Z" class="cls-1"/>
</svg>
