<svg xmlns="http://www.w3.org/2000/svg" xmlns:xlink="http://www.w3.org/1999/xlink" preserveAspectRatio="xMidYMid" width="21.375" height="35.41" viewBox="0 0 21.375 35.41">
  <defs>
    <style>
      .cls-1 {
        fill: #7dbe00;
        fill-rule: evenodd;
      }
    </style>
  </defs>
  <path d="M4.159,0.007 L4.290,0.321 C4.590,1.012 4.778,1.733 4.830,2.484 C4.905,3.575 4.750,4.642 4.443,5.690 C3.973,7.295 3.250,8.796 2.545,10.304 C1.749,12.007 0.961,13.714 0.473,15.539 C-0.003,17.316 -0.177,19.118 0.221,20.923 C0.829,23.678 2.110,26.107 3.964,28.228 C4.362,28.683 4.805,29.099 5.227,29.534 L5.282,29.487 L5.238,29.375 C4.453,27.555 3.858,25.678 3.549,23.715 C3.363,22.530 3.277,21.337 3.387,20.142 C3.526,18.639 3.870,17.176 4.377,15.756 C4.979,14.067 5.626,12.393 6.211,10.700 C6.869,8.797 7.205,6.844 6.977,4.821 C6.972,4.771 6.990,4.720 6.997,4.669 C7.285,5.495 7.422,6.339 7.459,7.198 C7.528,8.790 7.217,10.326 6.762,11.838 C6.288,13.416 5.775,14.980 5.330,16.566 C4.867,18.218 4.698,19.914 4.846,21.623 C5.019,23.625 5.484,25.569 6.144,27.467 C6.955,29.802 8.145,31.948 9.445,34.037 L10.307,35.406 L11.118,35.365 C11.068,35.245 10.962,35.116 10.977,35.003 C11.190,33.353 11.850,32.331 13.384,31.826 C14.211,31.552 15.068,31.365 15.913,31.144 C18.174,30.557 19.789,29.218 20.667,27.032 C21.199,25.706 21.412,24.322 21.368,22.895 C21.340,21.976 21.193,21.084 20.828,20.236 C20.749,20.052 20.645,19.879 20.528,19.654 C20.204,20.702 19.550,21.406 18.677,21.894 C18.043,22.249 17.368,22.530 16.710,22.842 C15.735,23.304 14.733,23.715 13.791,24.238 C12.628,24.884 11.826,25.887 11.341,27.131 C11.017,27.958 10.785,28.813 10.719,29.700 C10.686,30.148 10.713,30.599 10.713,31.049 L10.779,31.053 L11.008,30.456 C11.883,28.219 13.325,26.499 15.529,25.469 C16.018,25.240 16.495,24.986 16.978,24.743 C18.078,24.193 19.104,23.535 19.878,22.553 L19.925,22.560 C19.512,23.355 18.943,24.005 18.212,24.492 C17.528,24.948 16.812,25.359 16.101,25.774 C15.215,26.290 14.353,26.840 13.670,27.620 C12.441,29.023 11.658,30.665 11.170,32.452 C10.975,33.167 10.831,33.897 10.644,34.701 C10.358,34.208 10.085,33.777 9.848,33.325 C8.910,31.534 8.732,29.683 9.575,27.819 C9.983,26.914 10.505,26.060 11.023,25.210 C11.720,24.066 12.503,22.973 13.179,21.817 C15.167,18.417 15.566,14.816 14.327,11.075 C13.215,7.720 11.264,4.904 8.628,2.565 C7.411,1.485 6.065,0.604 4.501,0.101 L4.159,0.007 Z" class="cls-1"/>
</svg>
