<svg xmlns="http://www.w3.org/2000/svg" xmlns:xlink="http://www.w3.org/1999/xlink" preserveAspectRatio="xMidYMid" width="26" height="54" viewBox="0 0 26 54">
  <defs>
    <style>
      .cls-1 {
        fill: #fff;
        fill-rule: evenodd;
      }
    </style>
  </defs>
  <path d="M15.920,17.280 C15.468,16.833 15.468,16.111 15.922,15.666 C16.376,15.221 17.110,15.222 17.562,15.668 L17.739,15.842 C18.191,16.289 18.190,17.011 17.737,17.457 C17.510,17.679 17.213,17.790 16.918,17.790 C16.620,17.790 16.323,17.678 16.096,17.454 L15.920,17.280 ZM17.130,12.794 C17.130,13.424 17.650,13.934 18.290,13.934 L18.540,13.934 C19.180,13.934 19.700,13.424 19.700,12.794 C19.700,12.163 19.180,11.652 18.540,11.652 L18.290,11.652 C17.650,11.652 17.130,12.163 17.130,12.794 L17.130,12.794 ZM5.768,23.426 C6.301,23.777 7.021,23.638 7.378,23.114 C7.735,22.590 7.593,21.881 7.060,21.529 C4.092,19.571 2.320,16.305 2.320,12.794 C2.320,6.999 7.111,2.283 13.000,2.283 C18.889,2.283 23.680,6.999 23.680,12.794 C23.680,16.486 21.766,19.842 18.560,21.769 C18.014,22.097 17.841,22.801 18.176,23.338 C18.394,23.690 18.775,23.885 19.166,23.885 C19.372,23.885 19.581,23.830 19.770,23.717 C23.671,21.372 26.000,17.288 26.000,12.794 C26.000,5.739 20.169,0.000 13.000,0.000 C5.832,0.000 0.000,5.739 0.000,12.794 C0.000,17.068 2.156,21.042 5.768,23.426 L5.768,23.426 ZM16.096,8.132 L15.920,8.306 C15.468,8.753 15.468,9.475 15.922,9.921 C16.149,10.143 16.445,10.253 16.741,10.253 C17.039,10.253 17.336,10.142 17.562,9.919 L17.739,9.744 C18.191,9.298 18.191,8.575 17.737,8.130 C17.283,7.684 16.549,7.686 16.096,8.132 L16.096,8.132 ZM13.105,11.652 L12.895,11.652 C12.254,11.652 11.735,12.163 11.735,12.794 C11.735,13.424 12.254,13.934 12.895,13.934 L13.105,13.934 C13.746,13.934 14.266,13.424 14.266,12.794 C14.266,12.163 13.746,11.652 13.105,11.652 L13.105,11.652 ZM24.124,30.341 C24.344,30.588 24.446,30.916 24.403,31.242 L21.523,53.005 C21.448,53.574 20.955,54.000 20.373,54.000 L5.629,54.000 C5.045,54.000 4.553,53.574 4.478,53.005 L1.598,31.242 C1.555,30.916 1.657,30.588 1.877,30.341 C2.097,30.094 2.415,29.952 2.749,29.952 L8.046,29.952 C8.541,28.722 9.412,26.894 10.730,24.198 C11.266,23.101 11.729,22.154 11.933,21.684 C12.116,21.262 12.536,20.989 13.000,20.989 C13.465,20.989 13.885,21.262 14.067,21.684 C14.271,22.154 14.733,23.099 15.269,24.195 C16.588,26.893 17.458,28.721 17.955,29.952 L23.252,29.952 C23.586,29.952 23.904,30.094 24.124,30.341 L24.124,30.341 ZM9.849,31.801 C9.868,33.495 11.274,34.868 13.000,34.868 C14.726,34.868 16.132,33.495 16.151,31.801 C16.141,31.737 16.119,31.653 16.088,31.553 C16.059,31.489 16.036,31.422 16.020,31.353 C15.547,30.030 13.985,26.835 13.178,25.184 C13.118,25.060 13.058,24.939 13.000,24.821 C12.942,24.939 12.882,25.062 12.821,25.188 C12.015,26.836 10.455,30.027 9.982,31.350 C9.965,31.422 9.942,31.490 9.913,31.554 C9.882,31.655 9.860,31.737 9.849,31.801 L9.849,31.801 ZM21.932,32.235 L18.450,32.235 C18.208,34.986 15.856,37.152 13.000,37.152 C10.144,37.152 7.792,34.986 7.550,32.235 L4.069,32.235 L5.425,42.480 C6.687,43.255 9.073,43.145 10.535,42.181 C12.109,41.142 14.366,40.705 16.283,41.069 C16.912,41.190 17.324,41.788 17.202,42.407 C17.080,43.026 16.472,43.432 15.843,43.312 C14.517,43.059 12.902,43.367 11.827,44.076 C10.260,45.110 7.812,45.564 5.766,45.059 L6.647,51.717 L19.354,51.717 L21.932,32.235 ZM13.000,16.858 C12.359,16.858 11.840,17.368 11.840,17.999 L11.840,18.246 C11.840,18.875 12.359,19.387 13.000,19.387 C13.641,19.387 14.160,18.875 14.160,18.246 L14.160,17.999 C14.160,17.368 13.641,16.858 13.000,16.858 L13.000,16.858 ZM10.081,8.306 L9.905,8.132 C9.452,7.686 8.717,7.685 8.264,8.130 C7.811,8.576 7.810,9.299 8.263,9.745 L8.439,9.919 C8.666,10.142 8.963,10.254 9.260,10.254 C9.557,10.254 9.853,10.143 10.079,9.921 C10.533,9.475 10.533,8.752 10.081,8.306 L10.081,8.306 ZM8.870,12.794 C8.870,12.163 8.351,11.652 7.710,11.652 L7.460,11.652 C6.820,11.652 6.301,12.163 6.301,12.794 C6.301,13.424 6.820,13.934 7.460,13.934 L7.710,13.934 C8.351,13.934 8.870,13.424 8.870,12.794 L8.870,12.794 ZM13.000,8.729 C13.641,8.729 14.160,8.219 14.160,7.587 L14.160,7.342 C14.160,6.711 13.641,6.200 13.000,6.200 C12.359,6.200 11.840,6.711 11.840,7.342 L11.840,7.587 C11.840,8.219 12.359,8.729 13.000,8.729 L13.000,8.729 ZM9.083,17.790 C9.381,17.790 9.678,17.677 9.905,17.454 L10.081,17.280 C10.533,16.834 10.533,16.111 10.079,15.666 C9.626,15.221 8.891,15.221 8.439,15.667 L8.263,15.841 C7.810,16.288 7.811,17.011 8.264,17.455 C8.491,17.678 8.787,17.790 9.083,17.790 L9.083,17.790 ZM9.083,17.790 L9.083,17.790 Z" class="cls-1"/>
</svg>
