<svg xmlns="http://www.w3.org/2000/svg" xmlns:xlink="http://www.w3.org/1999/xlink" preserveAspectRatio="xMidYMid" width="50" height="62.97" viewBox="0 0 50 62.97">
  <defs>
    <style>
      .cls-1 {
        fill: #fff;
        fill-rule: evenodd;
      }
    </style>
  </defs>
  <path d="M44.027,9.822 L43.993,9.653 C43.634,9.732 43.267,9.782 42.918,9.894 C41.405,10.379 40.758,11.622 40.334,13.014 C39.948,14.284 40.317,14.921 41.568,15.291 C41.954,15.405 42.341,15.529 42.737,15.585 C43.610,15.707 44.024,16.211 44.151,17.066 C44.248,17.722 44.428,18.366 44.584,19.012 C44.694,19.471 44.990,19.745 45.438,19.901 C46.595,20.304 49.163,19.279 49.493,17.739 C49.850,16.069 50.389,14.429 49.569,12.745 C49.471,12.543 49.461,12.297 49.416,12.070 C49.243,11.198 48.833,10.506 47.985,10.139 C47.855,10.081 47.729,10.002 47.619,9.912 C46.958,9.374 46.239,9.286 45.435,9.540 C44.981,9.683 44.497,9.731 44.027,9.822 ZM45.802,18.649 C45.704,18.206 45.606,17.731 45.493,17.261 C45.377,16.784 45.277,16.300 45.116,15.838 C44.848,15.072 44.330,14.570 43.492,14.487 C43.064,14.445 42.635,14.422 42.206,14.395 C40.989,14.318 40.733,13.922 41.210,12.774 C41.524,12.020 41.930,11.327 42.717,10.955 C42.894,10.872 43.040,10.721 43.258,10.557 C43.464,10.970 43.814,11.071 44.231,11.010 C44.458,10.977 44.709,11.015 44.912,10.929 C45.952,10.490 46.878,10.824 47.740,11.377 C48.052,11.578 48.318,11.928 48.485,12.269 C48.762,12.837 48.979,13.441 49.150,14.051 C49.271,14.483 49.378,14.965 49.310,15.395 C49.190,16.161 48.940,16.907 48.729,17.657 C48.610,18.078 48.343,18.347 47.892,18.429 C47.226,18.551 46.591,18.915 45.802,18.649 ZM42.927,13.256 L42.961,13.473 C43.554,13.405 44.153,13.372 44.738,13.263 C45.407,13.138 45.844,13.384 46.145,13.970 C46.240,14.155 46.377,14.318 46.548,14.570 C46.904,13.853 46.664,13.334 46.302,12.878 C45.921,12.399 45.365,12.298 44.813,12.481 C44.170,12.695 43.554,12.994 42.927,13.256 ZM3.082,25.917 C3.082,26.261 3.056,26.609 3.088,26.952 C3.130,27.391 3.261,27.789 3.671,28.053 C4.942,28.874 6.654,28.409 7.326,27.051 C7.401,26.899 7.508,26.763 7.608,26.625 C8.290,25.687 8.330,24.832 7.709,23.923 C8.260,23.472 8.793,22.987 9.376,22.573 C10.249,21.952 10.741,21.123 10.960,20.084 C11.097,19.435 11.249,18.777 11.501,18.168 C12.576,15.575 14.454,13.759 17.035,12.745 C18.573,12.142 20.096,12.345 21.438,13.381 C22.304,14.049 23.140,14.757 23.988,15.448 C24.624,15.967 25.346,16.298 26.130,16.535 C26.759,16.725 27.397,16.947 27.964,17.272 C30.438,18.691 34.241,18.814 36.742,15.657 C37.146,15.148 37.450,14.603 37.557,13.959 C37.785,12.588 38.013,11.216 38.229,9.843 C38.367,8.959 38.241,8.104 37.835,7.308 C37.468,6.589 37.079,5.880 36.677,5.178 C36.050,4.087 35.132,3.303 33.987,2.829 C32.526,2.224 31.047,1.661 29.560,1.122 C27.288,0.297 24.914,0.050 22.520,-0.006 C21.112,-0.041 19.699,-0.046 18.294,0.037 C16.356,0.153 14.507,0.705 12.682,1.357 C9.784,2.393 7.051,3.719 4.778,5.855 C2.716,7.791 1.194,10.086 0.476,12.854 C-0.228,15.566 -0.046,18.309 0.346,21.048 C0.492,22.063 0.911,22.975 1.285,23.918 C1.644,24.822 2.076,25.561 3.082,25.917 ZM3.353,24.609 C3.246,24.440 3.153,24.331 3.100,24.205 C2.432,22.607 1.746,21.019 1.661,19.244 C1.580,17.564 1.490,15.887 1.743,14.215 C2.013,12.431 2.760,10.843 3.774,9.379 C5.804,6.447 8.627,4.569 11.895,3.323 C13.586,2.677 15.284,2.053 17.089,1.754 C18.494,1.522 19.896,1.524 21.303,1.557 C23.403,1.607 25.507,1.650 27.554,2.210 C28.190,2.384 28.824,2.575 29.446,2.796 C30.368,3.121 31.265,3.522 32.196,3.817 C34.092,4.415 35.255,5.773 36.131,7.478 C36.612,8.413 36.813,9.353 36.587,10.405 C36.368,11.423 36.230,12.459 36.083,13.491 C36.002,14.061 35.780,14.542 35.379,14.946 C35.216,15.110 35.063,15.284 34.910,15.457 C34.311,16.135 33.692,16.717 32.714,16.856 C31.462,17.034 30.228,17.112 29.090,16.504 C28.092,15.972 27.092,15.489 25.975,15.280 C25.808,15.248 25.636,15.182 25.495,15.087 C24.493,14.413 23.394,13.839 22.526,13.018 C21.116,11.686 19.478,11.297 17.674,11.505 C15.913,11.707 14.268,12.366 12.783,13.337 C10.530,14.809 9.451,17.039 9.092,19.637 C8.928,20.820 8.632,21.899 7.809,22.790 C7.352,23.284 6.941,23.695 6.120,23.520 C5.654,23.420 5.078,23.733 4.579,23.932 C4.160,24.098 3.782,24.367 3.353,24.609 ZM4.458,25.552 C5.521,24.891 5.911,24.816 6.889,25.109 C6.975,25.558 7.072,26.028 7.156,26.501 C7.224,26.879 7.005,27.104 6.699,27.238 C6.018,27.537 5.355,27.393 4.726,27.073 C4.600,27.008 4.485,26.809 4.470,26.662 C4.433,26.296 4.458,25.924 4.458,25.552 ZM7.571,15.566 C8.045,14.915 8.427,14.272 8.925,13.740 C9.432,13.200 10.034,12.743 10.630,12.299 C11.199,11.874 11.814,11.512 12.409,11.123 C10.067,11.442 7.381,13.570 7.571,15.566 ZM16.303,8.539 C15.638,8.255 15.055,8.264 14.458,8.409 C13.015,8.757 11.709,9.418 10.462,10.201 C10.065,10.451 9.725,10.791 9.255,11.175 C10.139,11.076 15.662,9.006 16.303,8.539 ZM17.709,21.033 C17.138,22.278 17.135,23.582 17.196,24.889 C17.222,25.466 17.319,26.042 17.361,26.619 C17.591,29.842 16.792,32.890 15.756,35.887 C15.076,37.853 13.920,39.559 12.677,41.196 C10.870,43.576 9.279,46.073 8.117,48.848 C6.923,51.700 6.057,54.607 5.858,57.725 C5.745,59.498 6.297,60.846 7.687,61.860 C8.044,62.122 8.490,62.318 8.923,62.405 C9.852,62.594 10.796,62.724 11.739,62.813 C12.215,62.857 12.720,62.826 13.182,62.711 C13.876,62.537 14.566,62.306 15.219,62.015 C16.056,61.641 16.870,61.209 17.665,60.752 C18.137,60.481 18.548,60.105 18.997,59.791 C20.718,58.582 22.081,57.019 23.339,55.350 C23.448,55.207 23.565,55.068 23.762,54.825 C23.798,55.309 23.863,55.655 23.842,55.995 C23.751,57.413 24.200,58.664 24.877,59.882 C25.701,61.361 26.833,62.367 28.539,62.628 C28.766,62.663 28.986,62.741 29.213,62.775 C30.208,62.925 31.215,63.157 32.187,62.709 C33.220,62.231 34.183,61.586 34.837,60.667 C35.653,59.520 36.419,58.303 36.984,57.016 C38.365,53.875 38.905,50.532 38.958,47.110 C38.982,45.548 39.077,43.984 38.791,42.427 C38.088,38.607 36.879,34.948 35.040,31.550 C34.044,29.709 32.741,28.020 31.452,26.360 C29.828,24.269 27.887,22.505 25.517,21.270 C24.764,20.879 24.019,20.472 23.266,20.069 C23.322,19.988 23.346,19.929 23.388,19.895 C24.311,19.168 24.366,18.515 23.574,17.672 C22.500,16.530 21.097,16.266 19.627,16.797 C18.295,17.277 17.442,18.025 17.255,19.547 C17.177,20.185 17.146,20.640 17.709,21.033 ZM19.296,20.319 L18.691,19.903 L18.866,18.674 L18.757,18.621 L18.155,19.806 C18.052,19.020 18.285,18.447 18.995,18.082 C19.697,17.721 20.379,17.367 21.203,17.544 C21.783,17.669 22.294,17.897 22.674,18.465 C22.513,18.582 22.337,18.669 22.217,18.805 C21.800,19.278 21.351,19.735 21.012,20.261 C20.660,20.806 20.844,21.178 21.463,21.461 C23.111,22.215 24.671,23.157 26.102,24.241 C27.817,25.539 29.416,27.016 30.604,28.868 C30.884,29.305 31.182,29.736 31.521,30.128 C32.803,31.607 33.687,33.318 34.511,35.079 C35.509,37.210 36.248,39.423 36.832,41.700 C37.225,43.231 37.292,44.782 37.292,46.351 C37.292,49.319 37.003,52.244 36.245,55.121 C35.795,56.828 35.013,58.365 34.037,59.806 C33.493,60.609 32.721,61.195 31.849,61.598 C31.504,61.757 31.053,61.823 30.681,61.756 C29.750,61.591 28.830,61.353 27.919,61.093 C27.018,60.835 26.545,60.076 26.093,59.331 C25.434,58.247 25.092,57.106 25.194,55.786 C25.383,53.352 25.722,50.958 26.397,48.608 C26.976,46.594 27.172,44.526 27.095,42.425 C27.025,40.490 26.348,38.757 25.478,37.073 C24.316,34.826 22.855,32.789 21.221,30.875 C19.858,29.278 19.023,27.430 18.555,25.394 C18.222,23.944 18.337,22.513 18.749,21.105 C18.829,20.830 19.088,20.608 19.296,20.319 ZM24.079,40.244 L23.809,43.376 L23.622,43.406 C23.256,42.758 22.864,42.122 22.541,41.453 C22.449,41.262 22.468,40.909 22.588,40.743 C23.005,40.168 23.490,39.642 24.027,39.006 C24.527,39.849 24.759,40.618 24.800,41.417 C24.861,42.598 24.926,43.793 24.820,44.966 C24.669,46.635 24.363,48.291 24.124,49.954 C24.075,50.296 24.076,50.663 23.630,50.770 C23.563,50.786 23.495,50.876 23.462,50.948 C23.102,51.730 22.704,52.498 22.406,53.304 C22.128,54.053 21.712,54.696 21.213,55.300 C20.089,56.660 18.795,57.836 17.493,59.025 C16.060,60.333 14.316,60.842 12.613,61.515 L8.622,61.025 C7.804,60.348 7.147,59.637 7.173,58.421 C7.222,56.120 7.785,53.952 8.635,51.849 C9.612,49.432 10.742,47.087 12.225,44.936 C12.881,43.983 13.526,43.020 14.250,42.123 C16.396,39.463 17.514,36.358 18.190,33.059 C18.392,32.076 18.514,31.077 18.696,29.941 L20.248,32.265 C17.478,34.130 17.742,36.690 18.675,39.315 C18.001,39.726 17.415,40.145 16.777,40.455 C16.206,40.732 15.812,41.163 15.434,41.636 C13.951,43.498 12.815,45.582 11.658,47.651 C11.234,48.408 10.831,49.177 10.459,49.959 C10.240,50.418 10.100,50.915 9.913,51.426 L10.357,51.510 C10.313,51.764 10.251,52.018 10.228,52.274 C10.173,52.877 10.073,53.486 10.104,54.087 C10.173,55.415 10.746,56.499 11.923,57.155 C12.623,57.546 13.376,57.849 14.125,58.139 C14.780,58.394 15.376,58.197 15.863,57.709 C16.817,56.754 17.461,55.591 17.977,54.359 C18.093,54.081 18.081,53.729 18.057,53.418 C17.998,52.648 17.898,51.882 17.819,51.159 L20.044,50.748 C19.878,52.146 19.165,53.479 19.165,54.938 L19.343,55.009 C19.489,54.688 19.685,54.379 19.771,54.043 C20.038,53.008 20.293,51.968 20.489,50.917 C20.570,50.483 20.720,50.189 21.091,49.941 C21.676,49.550 22.216,49.092 22.900,48.735 L21.526,52.660 C22.612,51.775 23.721,49.223 24.124,46.750 C24.479,44.569 24.525,41.068 24.079,40.244 ZM19.619,40.471 L19.000,41.441 C19.538,41.361 19.890,41.324 20.235,41.254 C21.161,41.067 21.320,41.137 21.794,41.912 C22.169,42.526 22.582,43.118 22.954,43.733 C23.085,43.949 23.208,44.206 23.225,44.452 C23.289,45.384 23.197,46.300 22.830,47.177 C22.552,47.842 22.130,48.376 21.493,48.714 C20.985,48.983 20.466,49.234 19.942,49.471 C18.353,50.189 16.947,49.580 16.268,47.855 C15.418,45.692 16.276,42.753 18.104,41.354 C18.424,41.109 18.716,40.825 19.042,40.590 C19.154,40.510 19.332,40.525 19.619,40.471 ZM14.437,48.220 C15.323,49.370 16.121,50.429 16.946,51.465 C17.577,52.258 17.666,53.791 17.058,54.595 C16.553,55.262 16.011,55.902 15.481,56.549 C15.104,57.011 14.651,57.131 14.102,56.859 C13.536,56.578 12.942,56.348 12.396,56.034 C11.728,55.649 11.399,55.002 11.293,54.253 C11.116,53.002 11.347,51.824 12.031,50.761 C12.389,50.203 12.760,49.640 13.206,49.156 C13.547,48.785 14.015,48.533 14.437,48.220 ZM23.991,38.563 C23.226,38.992 22.605,39.420 21.924,39.705 C20.650,40.237 19.831,39.812 19.402,38.488 C19.145,37.693 18.874,36.903 18.961,36.039 C19.066,34.997 19.748,33.644 20.622,32.868 C22.104,34.516 22.928,36.544 23.991,38.563 ZM11.413,49.605 C12.272,47.618 13.421,45.816 14.600,43.952 L14.600,47.241 C14.495,47.327 14.453,47.393 14.408,47.394 C13.384,47.424 12.598,47.834 12.087,48.765 C11.917,49.075 11.641,49.326 11.413,49.605 ZM8.743,58.296 L8.973,58.272 C8.973,57.766 8.964,57.259 8.976,56.753 C8.989,56.205 9.042,55.658 9.040,55.111 C9.038,54.629 9.242,54.106 8.759,53.530 C8.332,55.221 8.401,56.757 8.743,58.296 ZM34.756,47.963 C34.877,47.823 35.083,47.690 35.072,47.580 C35.024,47.099 34.967,46.607 34.809,46.155 C34.662,45.739 34.325,45.617 33.901,45.931 C33.922,46.707 34.061,47.416 34.756,47.963 ZM33.149,41.680 C33.648,42.069 35.089,42.355 35.529,42.158 C35.636,42.110 35.746,41.949 35.753,41.833 C35.758,41.721 35.661,41.565 35.562,41.491 C34.947,41.034 33.854,41.110 33.149,41.680 ZM35.666,49.700 C35.656,49.645 35.662,49.576 35.633,49.533 C35.243,48.953 34.773,48.450 34.091,48.243 C33.919,48.191 33.596,48.280 33.506,48.415 C33.410,48.557 33.439,48.873 33.535,49.041 C33.863,49.611 34.421,49.926 34.999,50.177 C35.284,50.299 35.669,49.990 35.666,49.700 ZM36.120,44.621 C34.538,43.185 33.356,43.158 32.986,44.429 C33.643,45.275 34.561,45.286 35.486,45.160 C35.699,45.131 35.875,44.839 36.120,44.621 ZM27.116,38.630 C26.732,35.480 25.665,32.621 23.499,30.252 C25.131,32.854 25.987,35.795 27.116,38.630 ZM13.131,33.447 C12.881,32.531 12.647,31.638 12.387,30.753 C12.341,30.599 12.209,30.448 12.078,30.345 C11.625,29.991 11.181,29.612 10.687,29.327 C9.693,28.751 8.873,28.912 8.047,29.726 C7.852,29.917 7.588,30.070 7.328,30.154 C6.948,30.276 6.543,30.322 6.147,30.395 C5.528,30.508 4.999,30.781 4.638,31.314 C4.186,31.983 3.686,32.630 3.326,33.348 C2.982,34.036 2.638,34.785 2.566,35.534 C2.445,36.791 2.804,37.959 3.934,38.714 C4.338,38.984 4.780,39.210 5.228,39.397 C5.863,39.662 6.523,39.665 7.165,39.395 C7.616,39.205 8.043,38.949 8.504,38.796 C10.611,38.100 11.819,36.481 12.775,34.609 C12.954,34.259 13.013,33.846 13.131,33.447 ZM3.294,35.190 C3.344,34.275 3.796,33.559 4.217,32.837 C4.279,32.731 4.443,32.679 4.568,32.621 C4.696,32.562 4.872,32.565 4.962,32.475 C5.698,31.738 6.699,31.769 7.605,31.565 C8.193,31.433 8.681,31.230 9.077,30.761 C9.449,30.320 9.702,30.358 10.203,30.610 C11.379,31.201 11.525,32.346 11.718,33.437 C11.775,33.759 11.579,34.182 11.384,34.483 C10.545,35.779 9.632,37.005 8.026,37.432 C7.725,37.512 7.449,37.690 7.164,37.828 C5.824,38.478 4.246,37.886 3.689,36.501 C3.519,36.079 3.424,35.627 3.294,35.190 ZM43.374,26.512 L43.374,26.111 C43.415,25.130 43.027,24.453 42.072,24.110 C41.759,23.998 41.488,23.755 41.215,23.548 C40.837,23.262 40.772,22.895 40.989,22.473 L41.494,21.466 C41.952,20.531 41.460,18.993 40.520,18.544 C39.919,18.255 39.276,18.112 38.593,18.260 C38.320,18.320 38.030,18.317 37.748,18.321 C37.194,18.330 36.653,18.379 36.242,18.813 C35.963,19.105 35.699,19.411 35.436,19.718 C34.796,20.468 34.413,21.322 34.427,22.328 C34.450,24.114 34.766,25.856 35.494,27.478 C36.299,29.273 38.342,30.124 40.206,29.494 C40.935,29.248 41.627,28.875 42.309,28.510 C43.111,28.080 43.606,27.450 43.374,26.512 ZM38.999,27.944 C37.967,27.932 37.103,27.378 36.762,26.349 C36.361,25.144 36.013,23.915 35.738,22.675 C35.487,21.544 36.191,19.987 37.227,19.605 C38.051,19.301 38.944,18.979 39.889,19.275 C40.626,19.505 41.088,20.423 40.764,21.145 C40.598,21.514 40.386,21.862 40.208,22.225 C39.799,23.060 39.882,23.523 40.567,24.152 C40.865,24.424 41.166,24.704 41.505,24.916 C42.461,25.517 42.288,26.930 41.295,27.266 C40.536,27.521 39.836,27.959 38.999,27.944 Z" class="cls-1"/>
</svg>
