<svg xmlns="http://www.w3.org/2000/svg" xmlns:xlink="http://www.w3.org/1999/xlink" preserveAspectRatio="xMidYMid" width="55.03" height="66" viewBox="0 0 55.03 66">
  <defs>
    <style>
      .cls-1 {
        fill: #fff;
        fill-rule: evenodd;
      }
    </style>
  </defs>
  <path d="M31.197,12.771 C31.148,11.606 31.524,10.566 31.189,9.547 C30.850,9.567 30.798,9.773 30.779,9.974 C30.665,11.163 30.565,12.353 30.452,13.542 C30.429,13.784 30.417,14.043 30.323,14.261 C29.970,15.086 29.584,15.897 29.156,16.835 C28.991,16.177 28.831,15.610 28.710,15.035 C28.292,13.057 28.768,11.240 29.662,9.485 C30.630,7.582 32.028,6.118 33.857,5.052 C34.532,4.657 35.164,4.190 35.828,3.775 C36.642,3.265 37.483,2.799 38.285,2.272 C38.820,1.919 39.309,1.492 39.871,1.059 C40.118,3.438 40.386,5.741 40.078,8.066 C39.845,9.832 39.058,11.344 37.906,12.633 C37.073,13.565 36.088,14.359 35.164,15.206 C35.000,15.357 34.815,15.514 34.612,15.584 C33.591,15.940 32.725,16.593 31.763,17.056 C31.339,17.260 30.838,17.300 30.278,17.437 C30.512,16.452 30.926,15.683 31.306,14.907 C31.960,13.572 31.972,13.574 33.340,13.050 C33.881,12.842 34.439,12.681 34.980,12.473 C35.326,12.341 35.656,12.163 36.069,11.969 C35.609,11.867 35.052,11.918 34.333,12.148 C33.787,12.323 33.255,12.544 32.588,12.793 C32.869,12.277 33.094,11.903 33.603,11.725 C34.191,11.519 34.760,11.251 35.318,10.974 C35.653,10.808 35.969,10.588 36.123,10.140 C35.471,9.922 35.047,10.483 34.381,10.566 L35.964,8.823 L35.883,8.701 L34.569,9.438 C34.569,9.224 34.545,9.080 34.573,8.946 C34.733,8.197 34.911,7.451 35.069,6.702 C35.113,6.498 35.109,6.284 35.127,6.075 L34.991,6.029 C34.902,6.137 34.772,6.232 34.732,6.356 C34.454,7.237 34.194,8.123 33.929,9.008 C33.922,9.029 33.911,9.053 33.914,9.073 C34.108,10.166 33.198,10.486 32.540,11.134 C32.610,10.078 32.844,9.146 32.777,8.204 L32.623,8.168 C32.551,8.316 32.445,8.456 32.412,8.612 C32.191,9.669 31.954,10.725 31.791,11.791 C31.729,12.197 31.489,12.397 31.197,12.771 ZM44.305,60.378 C44.860,60.634 45.084,60.667 45.545,60.365 C46.395,59.807 47.248,59.245 48.041,58.610 C49.669,57.306 50.837,55.593 51.996,53.882 C53.017,52.376 53.902,50.779 54.259,48.982 C54.589,47.324 54.774,45.631 54.938,43.945 C55.037,42.932 54.991,41.902 54.978,40.881 C54.963,39.621 54.856,38.372 54.458,37.164 C54.154,36.236 53.863,35.305 53.580,34.371 C53.200,33.120 52.739,31.914 51.994,30.824 C50.976,29.333 49.794,28.010 48.255,27.061 C47.649,26.688 46.982,26.394 46.311,26.153 C45.314,25.797 44.300,25.476 43.271,25.229 C42.748,25.104 42.252,24.964 41.785,24.697 C40.897,24.191 39.962,23.801 38.958,23.596 C37.918,23.382 36.883,23.132 35.835,22.977 C34.302,22.751 32.790,22.786 31.416,23.666 C31.247,23.774 31.056,23.847 30.926,23.911 C30.615,23.010 30.318,22.162 30.032,21.310 C29.862,20.804 29.628,20.341 29.347,19.914 C29.471,19.465 29.623,19.025 29.827,18.599 C30.333,18.549 30.823,18.521 31.306,18.446 C31.608,18.399 31.927,18.334 32.193,18.190 C33.114,17.691 33.970,17.073 34.991,16.770 C35.238,16.696 35.451,16.502 35.674,16.354 C36.824,15.594 37.762,14.588 38.691,13.588 C39.954,12.229 40.715,10.584 41.108,8.762 C41.360,7.594 41.211,6.422 41.153,5.255 C41.100,4.179 40.962,3.103 40.808,2.036 C40.722,1.441 40.531,0.862 40.377,0.278 C40.356,0.198 40.280,0.135 40.184,-0.000 C39.933,0.151 39.670,0.268 39.455,0.444 C37.820,1.783 36.073,2.921 34.134,3.780 C31.348,5.013 29.419,7.139 28.283,9.977 C27.935,10.847 27.636,11.773 27.532,12.697 C27.434,13.577 27.583,14.493 27.690,15.384 C27.793,16.247 28.121,17.043 28.673,17.718 C28.844,17.925 28.838,18.105 28.786,18.337 L28.637,19.007 C28.371,18.717 28.085,18.445 27.781,18.185 C26.867,17.407 25.772,17.193 24.674,17.667 C24.102,17.913 23.605,18.393 23.152,18.846 C22.671,19.326 22.649,19.965 23.064,20.497 C23.890,21.554 24.342,22.805 24.919,23.992 C24.969,24.096 24.968,24.225 25.003,24.406 C24.867,24.336 24.796,24.318 24.750,24.273 C23.971,23.533 23.056,23.182 21.978,23.254 C21.287,23.301 20.592,23.295 19.902,23.343 C18.384,23.448 16.982,23.871 15.923,25.042 C15.594,25.406 15.223,25.526 14.775,25.580 C12.296,25.885 10.011,26.747 8.013,28.242 C5.946,29.789 4.070,31.547 2.840,33.887 C2.776,34.008 2.696,34.215 2.619,34.218 C2.143,34.234 2.116,34.649 1.986,34.931 C1.765,35.414 1.614,35.931 1.431,36.433 C0.658,38.547 0.394,40.765 0.116,42.981 C-0.150,45.097 0.036,47.159 0.740,49.174 C1.391,51.038 2.005,52.917 2.681,54.773 C3.153,56.068 3.788,57.274 4.797,58.254 C6.399,59.808 8.124,61.208 9.960,62.465 C11.890,63.785 13.937,64.387 16.092,63.340 C17.723,64.058 19.255,64.834 20.857,65.417 C23.348,66.322 25.807,66.244 28.071,64.685 C28.432,64.437 28.748,64.417 29.159,64.461 C30.478,64.606 31.774,65.019 33.137,64.701 C34.529,64.376 35.972,64.252 37.344,63.866 C39.854,63.159 42.152,61.966 44.305,60.378 ZM32.969,48.527 L32.165,46.494 C32.152,46.462 32.108,46.444 31.977,46.337 C32.095,47.276 32.183,48.125 32.311,48.967 C32.541,50.499 32.478,52.028 32.283,53.554 C32.159,54.523 31.985,55.485 31.827,56.448 C31.601,57.832 30.991,59.058 30.220,60.200 C29.570,61.162 28.836,62.060 27.933,62.806 C27.595,63.086 27.317,63.438 26.984,63.724 C26.802,63.880 26.562,64.072 26.349,64.071 C25.197,64.067 24.039,64.065 22.896,63.946 C22.219,63.875 21.550,63.631 20.904,63.391 C18.193,62.382 15.798,60.805 13.473,59.113 C12.047,58.076 11.015,56.692 10.084,55.202 C9.104,53.633 8.642,51.892 8.182,50.139 C8.147,50.005 8.121,49.868 8.081,49.734 C8.061,49.669 8.020,49.611 7.931,49.438 C7.596,52.011 8.154,54.306 9.137,56.540 C10.152,58.845 11.965,60.398 13.966,61.794 C12.832,61.649 11.836,61.218 10.937,60.557 C9.259,59.324 7.590,58.076 5.902,56.857 C5.401,56.496 5.022,56.050 4.694,55.538 C3.875,54.259 3.252,52.891 2.775,51.449 C2.446,50.456 2.097,49.469 1.727,48.491 C1.293,47.347 1.030,46.177 1.074,44.947 C1.142,43.043 1.135,41.136 1.488,39.252 C1.735,37.934 2.235,36.736 2.905,35.573 C4.379,33.016 6.386,31.004 8.847,29.440 C10.792,28.205 12.920,27.472 15.220,27.273 C15.772,27.224 16.322,27.134 16.874,27.106 C17.661,27.067 18.439,27.128 19.149,27.531 C20.024,27.063 20.068,26.365 19.240,25.790 C18.958,25.594 18.635,25.461 18.179,25.217 C18.552,25.126 18.797,25.018 19.043,25.014 C20.127,24.999 21.212,24.993 22.294,25.030 C22.603,25.041 22.928,25.165 23.209,25.307 C23.841,25.629 24.451,25.995 25.115,26.369 C25.191,27.077 24.726,27.665 24.487,28.356 C24.049,28.298 23.639,28.255 23.233,28.186 C20.800,27.774 18.550,28.322 16.444,29.536 C15.424,30.123 14.429,30.759 13.459,31.427 C12.693,31.954 12.060,32.618 11.658,33.498 C11.206,34.489 10.669,35.439 10.191,36.418 C10.002,36.807 9.826,37.215 9.980,37.718 C10.086,37.530 10.198,37.344 10.298,37.154 L11.521,34.806 C12.276,33.372 13.452,32.384 14.871,31.680 C15.969,31.136 17.064,30.563 18.214,30.154 C20.289,29.415 22.363,29.513 24.474,30.472 C24.095,30.805 23.783,31.073 23.479,31.348 C22.652,32.098 21.892,32.904 21.303,33.866 C20.674,34.895 20.376,36.462 20.715,37.641 C20.794,37.371 20.884,37.103 20.951,36.831 C21.394,35.040 22.257,33.510 23.675,32.317 C24.190,31.885 24.707,31.456 25.202,31.002 C25.472,30.754 25.760,30.722 26.097,30.769 C26.600,30.838 27.107,30.931 27.612,30.924 C28.922,30.905 30.094,30.419 31.159,29.685 C32.294,28.902 34.321,28.564 35.598,29.052 C36.395,29.357 37.154,29.760 37.938,30.104 C38.466,30.336 39.002,30.555 39.544,30.754 C39.840,30.862 40.158,30.936 40.487,30.678 C41.507,31.742 42.645,32.734 43.333,34.062 C44.011,35.370 44.518,36.767 45.145,38.229 C45.163,37.939 45.201,37.723 45.186,37.511 C45.021,35.161 44.044,33.201 42.261,31.698 C40.777,30.446 39.207,29.296 37.538,28.298 C36.277,27.544 34.910,27.114 33.430,27.386 C32.457,27.566 31.505,27.864 30.545,28.116 C30.346,28.167 30.155,28.253 29.909,28.341 C29.909,28.197 29.867,28.064 29.915,27.996 C30.332,27.405 30.426,26.712 30.528,26.029 C30.593,25.591 30.830,25.386 31.196,25.155 C33.237,23.863 35.443,24.071 37.652,24.392 C38.536,24.521 39.401,24.799 40.263,25.050 C40.589,25.144 40.904,25.321 41.186,25.516 C42.457,26.390 43.940,26.817 45.301,27.502 C46.582,28.146 47.900,28.698 48.916,29.778 C50.176,31.117 51.152,32.611 51.652,34.401 C51.852,35.118 52.055,35.835 52.315,36.531 C52.876,38.032 53.118,39.578 53.120,41.178 C53.123,43.251 53.026,45.307 52.679,47.359 C52.379,49.140 51.733,50.760 50.779,52.263 C49.682,53.989 48.437,55.604 47.021,57.080 C46.960,57.142 46.887,57.192 46.706,57.194 C46.788,56.972 46.850,56.741 46.954,56.530 C48.115,54.157 48.569,51.626 48.418,49.013 C48.344,47.723 48.042,46.439 47.753,45.172 C47.553,44.294 47.011,43.585 46.285,43.031 C46.051,42.852 45.857,42.617 45.532,42.298 C45.608,42.605 45.641,42.787 45.698,42.961 C46.024,43.953 46.465,44.923 46.660,45.940 C47.041,47.930 47.162,49.920 46.735,51.961 C46.308,54.008 45.386,55.809 44.472,57.629 C44.024,58.522 43.209,59.110 42.426,59.683 C40.829,60.850 39.115,61.836 37.231,62.423 C35.936,62.826 34.573,63.004 33.240,63.281 C33.172,63.295 33.097,63.281 33.033,63.301 C32.000,63.632 30.949,63.582 29.842,63.440 C29.942,63.313 30.030,63.190 30.129,63.078 C31.660,61.344 32.897,59.435 33.137,57.072 C33.401,54.481 33.609,51.878 33.065,49.288 C33.012,49.039 33.000,48.780 32.969,48.527 ZM25.403,29.170 C25.680,28.775 25.885,28.548 26.019,28.283 C26.932,26.481 27.214,24.657 26.015,22.868 C25.357,21.889 24.634,20.952 23.905,20.024 C23.466,19.464 23.438,19.283 23.967,18.816 C24.690,18.175 25.474,17.847 26.440,18.293 C26.770,18.446 27.018,18.646 27.228,18.940 C27.696,19.596 28.028,20.309 28.288,21.051 C28.238,21.502 28.225,21.954 28.317,22.412 C28.355,22.604 28.383,22.797 28.677,22.917 L28.747,22.641 C28.952,23.568 28.941,24.484 28.812,25.425 C28.674,26.435 28.566,27.459 28.796,28.474 C28.854,28.730 28.780,28.897 28.536,28.951 C28.068,29.055 27.596,29.179 27.121,29.212 C26.602,29.249 26.077,29.191 25.403,29.170 ZM15.150,53.678 C14.679,54.374 14.552,55.014 14.618,55.692 C14.629,55.813 14.788,56.008 14.882,56.010 C14.996,56.013 15.198,55.861 15.216,55.752 C15.306,55.212 15.358,54.666 15.394,54.120 C15.401,54.016 15.279,53.903 15.150,53.678 ZM2.794,45.600 L3.044,45.633 C3.375,44.861 3.808,44.131 3.942,43.278 C3.955,43.197 3.855,43.098 3.781,42.955 C3.140,43.501 2.906,44.204 2.709,44.912 C2.652,45.117 2.761,45.369 2.794,45.600 ZM13.769,50.822 C13.047,51.346 12.865,52.115 12.832,52.923 C12.822,53.175 12.861,53.530 13.314,53.618 C13.420,52.662 13.968,51.827 13.769,50.822 ZM12.064,46.471 L11.870,46.429 C11.158,47.143 11.004,48.101 10.838,49.042 C10.791,49.311 10.772,49.649 11.133,49.796 C11.407,49.399 11.986,47.702 12.084,46.985 C12.107,46.818 12.072,46.643 12.064,46.471 ZM12.358,51.635 C12.393,50.572 13.344,49.816 13.250,48.672 C12.418,49.053 11.661,50.272 11.712,51.052 C11.734,51.381 11.828,51.649 12.358,51.635 ZM34.717,49.264 C35.066,47.867 34.372,43.893 33.761,43.222 C33.860,44.189 33.952,45.202 34.072,46.210 C34.159,46.945 34.268,47.678 34.397,48.407 C34.441,48.659 34.576,48.896 34.717,49.264 ZM4.207,45.067 C4.148,45.110 4.056,45.150 4.007,45.220 C3.423,46.064 3.136,47.003 3.149,48.033 C3.150,48.102 3.147,48.187 3.183,48.237 C3.271,48.360 3.371,48.543 3.487,48.561 C3.589,48.576 3.790,48.420 3.826,48.302 C4.084,47.460 4.328,46.613 4.539,45.758 C4.604,45.495 4.597,45.184 4.207,45.067 ZM32.980,48.550 L33.445,49.503 C33.852,47.582 32.467,43.609 31.290,42.857 C31.641,43.691 32.090,44.604 32.411,45.560 C32.733,46.522 32.993,47.515 32.980,48.550 ZM6.924,45.863 C6.967,44.456 6.970,43.166 7.057,41.883 C7.143,40.620 7.316,39.363 7.450,38.102 C6.446,39.909 6.152,44.356 6.924,45.863 ZM46.865,41.422 C47.784,40.276 46.904,35.462 45.568,34.029 C46.057,35.187 46.289,36.404 46.432,37.642 L46.865,41.422 ZM11.795,31.663 C11.244,31.934 11.002,32.447 10.799,32.950 C10.294,34.197 9.796,35.449 9.378,36.726 C8.830,38.400 8.272,40.078 8.136,41.854 C8.112,42.174 8.148,42.498 8.156,42.820 C8.343,42.624 8.409,42.427 8.445,42.225 C8.863,39.888 9.515,37.612 10.273,35.368 C10.700,34.105 11.097,32.825 11.795,31.663 Z" class="cls-1"/>
</svg>
