<svg xmlns="http://www.w3.org/2000/svg" xmlns:xlink="http://www.w3.org/1999/xlink" preserveAspectRatio="xMidYMid" width="39.969" height="40.97" viewBox="0 0 39.969 40.97">
  <defs>
    <style>
      .cls-1 {
        fill: #fff;
        fill-rule: evenodd;
      }
    </style>
  </defs>
  <path d="M9.111,6.853 C9.079,6.887 9.058,6.928 9.026,6.942 C8.920,6.985 8.812,7.025 8.702,7.055 C5.871,7.827 3.987,9.690 2.684,12.222 C2.350,12.871 2.079,13.555 1.705,14.178 C-0.253,17.440 -0.228,21.040 0.214,24.581 C0.574,27.465 1.592,30.249 3.072,32.803 C4.709,35.626 6.886,37.891 9.970,39.181 C13.521,40.667 17.157,41.472 21.015,40.628 C21.391,40.546 21.778,40.497 22.161,40.477 C23.807,40.391 25.345,39.919 26.814,39.208 C27.853,38.704 28.898,38.205 29.896,37.628 C30.725,37.147 31.553,36.628 32.268,35.998 C33.419,34.983 34.487,33.873 35.569,32.783 C36.472,31.875 37.134,30.811 37.662,29.639 C39.270,26.072 39.935,22.323 39.968,18.443 C39.979,17.244 39.812,16.079 39.267,14.978 C38.945,14.327 38.711,13.630 38.458,12.946 C37.997,11.698 37.324,10.601 36.248,9.779 C35.026,8.845 33.698,8.017 32.614,6.946 C31.069,5.418 29.305,4.781 27.179,4.944 C26.937,4.963 26.642,4.877 26.441,4.737 C25.674,4.206 24.843,4.232 23.998,4.409 C23.440,4.526 22.896,4.708 22.264,4.884 C22.191,4.520 22.111,4.194 22.060,3.863 C21.932,3.029 21.842,2.188 21.691,1.359 C21.457,0.082 20.835,-0.323 19.627,0.179 C17.534,1.048 15.727,2.232 15.620,4.864 C15.408,4.864 15.219,4.888 15.039,4.860 C13.654,4.645 12.283,4.667 10.904,4.956 C9.463,5.258 9.288,5.407 9.111,6.853 ZM12.351,8.515 L11.174,9.701 C10.141,10.740 10.429,12.039 11.824,12.464 C12.801,12.762 13.667,12.823 15.164,12.513 C15.290,12.811 15.415,13.123 15.553,13.429 C16.041,14.507 16.829,15.035 17.768,14.917 C18.722,14.798 19.166,14.293 19.452,13.008 L19.752,11.731 C20.185,12.171 20.507,12.519 20.851,12.843 C21.891,13.821 22.897,13.657 23.536,12.409 C23.676,12.136 23.790,11.850 23.950,11.494 C24.998,11.519 26.197,11.541 26.731,10.432 C27.164,9.528 27.282,8.476 27.564,7.401 C28.506,7.538 29.475,7.725 30.341,8.509 C31.589,9.639 32.976,10.619 34.320,11.643 C35.075,12.218 35.642,12.910 35.934,13.822 C36.063,14.224 36.200,14.631 36.405,14.997 C37.521,16.994 37.307,19.134 37.146,21.280 C36.919,24.296 35.719,26.980 34.346,29.610 C34.293,29.711 34.234,29.816 34.154,29.896 C32.364,31.677 30.769,33.707 28.516,34.937 C26.706,35.925 24.934,37.070 22.817,37.384 C21.218,37.622 19.624,38.039 18.022,38.073 C16.543,38.105 15.036,37.827 13.576,37.522 C8.440,36.450 5.223,33.201 3.402,28.428 C3.225,27.962 3.069,27.487 2.862,27.034 C1.514,24.080 1.521,20.975 2.115,17.906 C2.413,16.366 3.301,14.938 3.905,13.453 C4.655,11.610 5.915,10.191 7.573,9.127 C8.314,8.653 9.125,8.284 9.917,7.893 C10.070,7.817 10.299,7.800 10.462,7.852 C11.078,8.044 11.681,8.277 12.351,8.515 ZM20.637,1.145 C20.145,3.534 19.828,5.917 20.717,8.271 C22.017,8.618 22.132,8.518 22.485,6.651 L25.102,6.087 C25.848,7.133 25.639,8.164 25.402,9.156 C25.333,9.442 24.913,9.645 24.596,9.937 C24.344,9.551 24.222,9.253 24.005,9.061 C23.800,8.879 23.455,8.667 23.249,8.728 C23.033,8.791 22.848,9.146 22.765,9.409 C22.676,9.691 22.778,10.032 22.694,10.317 C22.567,10.745 22.350,11.147 22.181,11.539 C20.945,11.371 20.478,9.666 18.973,10.185 C19.124,11.109 19.162,11.962 18.667,12.763 C18.423,13.157 18.148,13.449 17.686,13.448 C17.159,13.446 16.811,13.107 16.683,12.635 C16.554,12.163 16.564,11.655 16.460,11.173 C16.399,10.894 16.300,10.513 16.097,10.407 C15.934,10.323 15.553,10.533 15.332,10.696 C14.380,11.402 13.406,11.514 12.298,10.936 C12.854,10.009 13.756,9.637 14.571,9.158 C14.700,9.081 14.926,9.101 14.993,9.001 C15.174,8.732 15.413,8.419 15.405,8.130 C15.396,7.779 15.075,7.614 14.668,7.555 C13.569,7.395 12.478,7.171 11.390,6.943 C11.112,6.884 10.857,6.715 10.452,6.535 C11.552,5.911 12.610,6.113 13.610,5.994 C13.836,5.967 14.072,6.045 14.300,6.029 C15.523,5.942 16.562,6.146 17.112,7.444 C17.256,7.784 17.679,8.007 18.054,8.358 C18.284,7.552 18.014,7.006 17.748,6.453 C16.596,4.054 16.968,2.774 19.258,1.376 C19.598,1.170 20.014,1.087 20.395,0.948 L20.637,1.145 ZM12.265,28.032 C11.671,28.815 11.650,30.219 12.175,30.817 C12.422,31.096 12.843,31.007 12.985,30.645 C13.255,29.955 12.918,28.640 12.265,28.032 ZM11.091,24.904 C10.957,24.904 10.850,24.872 10.814,24.908 C9.929,25.825 9.495,26.947 9.339,28.186 C9.291,28.565 9.431,28.849 9.859,28.951 C10.125,28.262 10.403,27.594 10.641,26.912 C10.868,26.263 11.388,25.661 11.091,24.904 ZM7.233,26.571 C8.167,25.337 8.547,23.252 7.946,22.267 C7.076,23.151 6.783,24.218 6.673,25.354 C6.626,25.844 6.631,26.355 7.233,26.571 Z" class="cls-1"/>
</svg>
