<svg xmlns="http://www.w3.org/2000/svg" xmlns:xlink="http://www.w3.org/1999/xlink" preserveAspectRatio="xMidYMid" width="50" height="57" viewBox="0 0 50 57">
  <defs>
    <style>
      .cls-1 {
        fill: #fff;
        fill-rule: evenodd;
      }
    </style>
  </defs>
  <path d="M39.936,22.312 L39.818,22.154 C40.634,20.750 41.454,19.351 42.261,17.943 C42.498,17.530 42.720,17.104 42.907,16.666 C43.359,15.608 43.785,14.538 44.223,13.474 C44.450,12.922 44.704,12.330 44.497,11.760 C44.184,10.900 44.559,10.234 44.906,9.532 C45.018,9.306 45.138,9.084 45.245,8.855 C45.674,7.939 45.706,7.043 45.257,6.101 C45.048,5.660 45.001,5.129 44.941,4.632 C44.874,4.075 44.882,3.510 44.846,2.948 C44.778,1.906 44.288,1.145 43.340,0.693 C43.114,0.584 42.862,0.505 42.671,0.350 C42.212,-0.022 41.695,-0.068 41.172,0.075 C40.204,0.342 39.250,0.658 38.290,0.953 C37.264,1.268 36.449,1.890 35.805,2.736 C34.995,3.799 33.969,4.476 32.678,4.868 C31.008,5.376 29.448,6.156 28.243,7.480 C27.673,8.107 27.084,8.684 26.304,9.038 C26.194,9.088 26.107,9.188 25.979,9.290 L26.444,9.506 C25.513,10.693 24.156,11.152 22.891,11.808 C22.919,11.444 23.016,11.131 23.112,10.818 C23.649,9.074 24.189,7.332 24.718,5.586 C24.820,5.250 24.954,4.892 24.619,4.545 C24.131,4.971 23.985,5.560 23.766,6.090 C22.895,8.189 21.956,10.268 21.658,12.557 C21.638,12.715 21.576,12.895 21.473,13.008 C20.778,13.771 20.066,14.518 19.315,15.317 C19.086,14.727 18.883,14.123 18.615,13.548 C18.465,13.225 18.483,12.957 18.651,12.676 C18.997,12.097 19.312,11.496 19.701,10.949 C20.872,9.303 22.074,7.679 23.258,6.043 C23.428,5.807 23.569,5.551 23.753,5.258 C23.325,5.061 23.040,5.155 22.785,5.329 C22.487,5.536 22.170,5.739 21.934,6.009 C21.121,6.935 20.301,7.861 19.559,8.844 C18.905,9.710 18.351,10.653 17.729,11.598 C17.629,11.464 17.521,11.368 17.472,11.248 C16.909,9.879 15.952,8.764 15.112,7.578 C14.508,6.725 13.741,6.023 12.866,5.453 C12.620,5.293 12.346,5.090 12.037,5.318 C11.709,7.412 11.403,9.494 11.051,11.568 C10.736,13.422 10.520,15.313 9.992,17.108 C9.060,20.285 8.066,23.448 6.888,26.551 C5.927,29.085 4.837,31.523 3.341,33.790 C1.727,36.237 0.725,38.941 0.405,41.874 C0.258,43.216 0.144,44.562 0.053,45.908 C-0.121,48.482 0.131,51.022 0.831,53.504 C1.098,54.449 1.693,55.229 2.592,55.611 C4.644,56.483 6.826,56.884 9.038,56.993 C10.625,57.071 12.115,56.466 13.601,55.981 C17.926,54.565 21.618,52.034 25.166,49.262 C27.023,47.811 28.394,45.920 29.746,44.020 C30.985,42.280 32.178,40.498 32.948,38.498 C33.345,37.466 33.918,36.698 34.856,36.169 C34.977,36.101 35.077,35.997 35.192,35.916 C37.170,34.540 39.180,33.207 41.359,32.175 C43.590,31.118 45.738,29.921 47.820,28.599 C48.139,28.397 48.418,28.087 48.632,27.770 C49.039,27.169 49.387,26.528 49.757,25.902 C49.842,25.759 49.965,25.617 49.987,25.462 C50.013,25.288 50.006,25.036 49.901,24.934 C49.798,24.834 49.546,24.840 49.375,24.875 C49.165,24.919 48.978,25.092 48.769,25.123 C46.472,25.464 44.174,25.802 41.841,25.594 C41.700,25.581 41.564,25.518 41.409,25.474 C41.472,25.365 41.489,25.303 41.529,25.272 C42.853,24.247 44.059,23.051 45.639,22.388 C45.788,22.326 45.959,22.105 45.958,21.959 C45.957,21.826 45.761,21.633 45.609,21.573 C45.301,21.453 44.958,21.321 44.640,21.344 C43.782,21.406 42.921,21.500 42.079,21.672 C41.352,21.821 40.649,22.094 39.936,22.312 ZM41.177,30.002 C41.513,29.648 41.520,29.649 42.101,29.565 C41.793,29.837 41.543,30.040 41.177,30.002 ZM41.091,30.038 C40.838,30.205 40.594,30.392 40.325,30.526 C38.775,31.303 37.220,32.070 35.662,32.832 C32.650,34.307 29.930,36.216 27.420,38.435 C27.367,38.482 27.324,38.540 27.304,38.633 C29.570,37.161 31.889,35.793 34.437,34.525 C32.234,36.769 30.204,38.956 28.658,41.573 L29.243,41.097 L29.356,41.183 C28.973,41.735 28.605,42.301 28.202,42.839 C27.433,43.872 26.662,44.906 25.858,45.911 C24.884,47.128 23.662,48.066 22.391,48.950 C20.990,49.923 19.678,51.042 18.212,51.901 C15.621,53.417 12.868,54.596 9.944,55.334 C8.692,55.650 7.469,55.350 6.205,55.175 C7.821,54.440 9.258,53.444 10.681,52.431 C12.111,51.412 13.514,50.359 14.673,49.025 L14.583,48.879 C14.113,49.153 13.617,49.392 13.178,49.710 C11.249,51.106 9.338,52.526 7.420,53.939 C6.946,54.287 6.492,54.666 5.992,54.973 C5.730,55.135 5.390,55.171 5.033,55.168 C6.451,54.228 7.761,53.211 8.696,51.799 L8.587,51.657 C8.091,51.994 7.591,52.328 7.099,52.671 C6.249,53.265 5.407,53.869 4.556,54.460 C3.963,54.869 3.360,54.827 2.700,54.439 L3.299,42.968 C2.170,46.079 2.268,49.356 1.866,52.590 C1.826,52.270 1.798,51.947 1.745,51.629 C1.215,48.448 1.510,45.303 2.028,42.146 C2.482,39.376 3.415,36.807 4.971,34.497 C6.829,31.738 7.978,28.677 9.071,25.567 C10.376,21.854 11.006,18.005 11.577,14.136 C11.753,12.941 11.903,11.740 12.087,10.546 C12.324,9.014 12.432,7.482 12.124,5.742 C12.529,6.263 12.832,6.615 13.092,6.995 C14.074,8.429 15.088,9.846 15.787,11.454 C15.966,11.867 16.128,12.288 16.341,12.683 C17.406,14.655 17.806,16.798 17.968,19.001 C18.050,20.122 18.119,21.246 18.145,22.370 C18.196,24.534 17.683,26.617 17.088,28.666 C16.446,30.878 15.673,33.052 14.961,35.244 C14.886,35.473 14.833,35.711 14.865,35.981 C17.282,32.669 18.957,29.014 19.909,24.921 L20.870,25.529 L20.543,26.567 C20.767,26.481 20.883,26.446 20.989,26.391 C21.110,26.328 21.222,26.246 21.365,26.155 C22.036,26.934 22.339,28.017 23.517,28.561 C23.269,27.292 22.625,26.416 22.007,25.427 L23.915,23.693 L25.719,25.479 C25.853,24.772 25.853,24.772 24.901,22.859 C25.519,22.005 26.136,21.145 26.761,20.290 C26.860,20.154 26.983,20.035 27.109,19.924 C27.849,19.273 28.194,19.261 28.892,19.968 C29.462,20.546 29.975,21.180 30.512,21.792 C30.703,22.010 30.890,22.233 31.140,22.402 C30.761,21.009 29.559,20.238 28.659,19.101 C30.132,18.349 30.788,16.861 31.791,15.694 C32.670,16.153 33.637,17.663 34.360,19.699 L30.823,24.338 C30.329,24.985 29.804,25.610 29.345,26.280 C29.118,26.612 28.845,26.772 28.479,26.877 C24.937,27.887 21.716,29.545 18.833,31.840 C17.572,32.845 16.574,34.099 15.857,35.556 C15.652,35.973 15.481,36.415 15.580,37.117 C16.122,36.520 16.589,36.085 16.962,35.582 C18.481,33.538 20.625,32.319 22.756,31.077 C25.956,29.210 29.384,28.112 33.096,27.958 C36.088,27.835 39.049,27.394 42.020,27.060 C43.594,26.882 45.149,26.525 46.787,26.237 C44.756,27.473 42.574,28.299 40.505,29.345 C38.407,30.405 36.291,31.431 34.164,32.431 C32.040,33.429 29.893,34.374 27.782,35.439 C28.361,35.273 28.946,35.125 29.518,34.936 C32.443,33.964 35.243,32.686 38.033,31.385 C38.819,31.018 39.593,30.624 40.381,30.261 C40.604,30.158 40.852,30.106 41.091,30.038 ZM41.163,30.017 L41.091,30.038 L41.148,30.000 L41.177,30.002 L41.163,30.017 ZM36.448,23.054 C36.456,21.765 35.937,20.581 35.619,19.514 L38.155,15.910 L39.046,17.451 C39.224,16.741 39.025,16.236 38.811,15.773 C38.531,15.169 38.595,14.664 38.952,14.124 C39.291,13.611 39.563,13.053 39.896,12.458 L40.434,12.958 C40.474,12.662 40.554,12.443 40.523,12.240 C40.427,11.610 40.666,11.090 40.972,10.576 C41.345,9.949 41.702,9.313 42.090,8.638 L42.907,9.420 C43.133,8.907 42.976,8.510 42.811,8.149 C42.631,7.758 42.650,7.419 42.793,7.021 C42.989,6.477 43.101,5.902 43.249,5.340 L43.053,5.238 L42.057,6.655 L41.198,5.561 L42.757,2.258 C43.166,2.330 43.308,2.582 43.344,2.905 C43.385,3.267 43.410,3.632 43.422,3.996 C43.457,4.984 43.533,5.961 43.901,6.892 C44.086,7.362 44.069,7.821 43.837,8.276 C43.646,8.651 43.483,9.040 43.292,9.415 C42.912,10.163 42.707,10.937 42.940,11.772 C43.063,12.213 42.920,12.594 42.765,12.994 C41.825,15.403 40.720,17.729 39.351,19.924 C38.193,21.780 37.025,23.629 35.875,25.490 C35.664,25.830 35.405,26.011 35.004,26.040 C34.028,26.110 33.053,26.203 32.078,26.287 L30.006,26.461 C30.230,26.135 30.382,25.887 30.560,25.661 C31.286,24.736 32.041,23.833 32.744,22.890 C33.127,22.375 33.411,21.788 33.769,21.253 C33.999,20.910 34.281,20.604 34.596,20.210 L36.275,23.125 L36.448,23.054 ZM35.364,18.661 C34.803,17.011 34.168,15.485 32.811,14.374 C33.446,13.418 34.217,12.669 35.235,12.128 C35.875,12.372 36.290,12.923 36.672,13.455 C37.876,15.134 37.865,14.535 36.966,16.475 C36.348,17.807 36.092,18.124 35.364,18.661 ZM28.216,13.883 L31.081,15.044 C30.091,16.309 29.467,17.723 28.081,18.348 L24.435,16.485 C24.773,16.266 25.067,16.024 25.401,15.868 C27.136,15.058 27.140,15.066 28.216,13.883 ZM27.169,18.874 L24.411,22.168 C23.546,21.178 22.651,20.395 21.400,20.009 L23.323,17.506 L27.169,18.874 ZM32.239,9.367 L33.024,8.903 L33.943,8.349 C34.014,8.305 34.070,8.239 34.136,8.188 C35.323,7.243 35.617,7.234 36.829,8.113 C37.119,8.324 37.399,8.550 37.749,8.819 C37.125,9.659 36.353,10.237 35.591,10.814 L32.239,9.367 ZM34.264,11.420 L31.900,13.760 L29.080,12.689 L31.331,10.227 L34.264,11.420 ZM23.469,23.003 L21.404,24.873 L20.028,24.383 C20.028,23.069 20.027,21.842 20.034,20.616 C20.034,20.603 20.131,20.592 20.277,20.557 L20.159,21.494 L20.863,20.823 C21.887,21.378 22.847,21.960 23.469,23.003 ZM26.947,13.543 C26.657,14.061 26.303,14.312 25.870,14.465 C24.991,14.776 24.196,15.231 23.479,15.834 C23.326,15.964 23.076,16.083 22.894,16.055 C22.268,15.956 21.652,15.790 20.913,15.622 C21.592,14.749 22.292,14.017 23.145,13.437 C23.210,13.392 23.301,13.373 23.383,13.365 C24.546,13.261 25.710,13.172 26.947,13.543 ZM29.151,8.416 C30.408,6.525 32.271,5.646 34.372,6.811 C33.372,7.527 32.410,8.225 31.436,8.903 C31.317,8.986 31.113,9.026 30.976,8.989 C30.389,8.826 29.813,8.627 29.151,8.416 ZM38.178,13.811 L36.418,11.356 L38.390,9.499 C38.910,9.923 39.183,10.475 39.439,11.031 C39.490,11.143 39.495,11.324 39.440,11.431 C39.036,12.222 38.611,13.001 38.178,13.811 ZM25.558,12.049 C26.652,11.318 27.456,10.555 28.120,9.644 C28.321,9.367 28.586,9.268 28.928,9.380 C29.377,9.529 29.831,9.657 30.341,9.812 C30.026,10.529 29.433,10.918 28.963,11.409 C28.285,12.117 27.516,12.503 26.510,12.145 C26.280,12.063 26.013,12.091 25.558,12.049 ZM42.723,22.804 L39.892,25.390 C39.811,25.464 39.716,25.560 39.619,25.572 C38.966,25.647 38.311,25.703 37.618,25.684 C38.201,24.745 38.536,23.636 39.881,23.468 C40.563,23.383 41.219,23.090 41.889,22.898 C42.152,22.823 42.422,22.767 42.688,22.703 L42.723,22.804 ZM36.751,6.813 L38.629,4.680 L40.068,5.709 L38.476,8.042 L36.751,6.813 ZM19.604,17.057 C20.547,16.781 21.345,16.921 22.254,17.163 C21.764,18.042 21.326,18.865 20.840,19.661 C20.758,19.796 20.456,19.889 20.288,19.851 C20.119,19.812 19.886,19.604 19.862,19.443 C19.745,18.678 19.689,17.903 19.604,17.057 ZM40.515,4.955 L39.025,4.126 C39.775,3.319 40.466,2.566 41.168,1.824 C41.408,1.570 41.708,1.550 42.011,1.706 C42.204,1.807 42.384,1.935 42.577,2.055 L40.515,4.955 ZM40.218,10.100 L39.118,8.614 L40.607,6.465 C41.048,6.724 41.236,7.135 41.431,7.518 C41.501,7.653 41.457,7.902 41.377,8.051 C41.025,8.714 40.641,9.359 40.218,10.100 ZM34.135,5.602 C34.892,5.071 35.563,4.527 36.306,4.116 C36.578,3.965 37.021,4.127 37.422,4.248 C36.902,4.951 36.311,5.517 35.645,5.996 C35.525,6.081 35.271,6.027 35.097,5.974 C34.779,5.879 34.475,5.737 34.135,5.602 ZM39.929,2.037 C39.284,2.640 38.728,3.267 38.062,3.735 C37.760,3.947 37.239,3.844 36.726,3.893 C37.457,2.756 38.237,2.316 39.929,2.037 ZM48.387,25.613 C47.819,26.301 47.355,27.116 46.245,27.309 L48.237,25.437 L48.387,25.613 ZM4.198,53.598 C5.155,52.643 6.214,49.434 5.910,48.491 C5.211,50.146 4.498,51.727 4.198,53.598 ZM3.443,54.084 C4.345,50.897 4.187,47.749 4.654,44.682 C4.673,44.553 4.616,44.412 4.589,44.276 C4.585,44.258 4.552,44.240 4.529,44.232 C4.505,44.224 4.478,44.231 4.451,44.231 C3.818,45.792 3.085,52.559 3.443,54.084 ZM16.696,26.309 C16.315,26.809 12.248,37.561 12.189,38.210 C12.260,38.145 12.337,38.101 12.379,38.034 C13.981,35.517 15.220,32.819 16.213,30.011 C16.520,29.143 16.683,28.222 16.886,27.318 C16.963,26.977 16.999,26.610 16.696,26.309 ZM22.377,35.978 C20.517,36.833 13.974,44.446 13.593,46.164 C16.975,43.053 19.581,39.437 22.377,35.978 ZM14.592,28.403 C13.104,30.338 8.049,41.344 8.008,42.665 C9.807,41.255 13.757,31.809 14.592,28.403 ZM27.205,31.165 C26.779,31.236 26.534,31.266 26.293,31.318 C25.233,31.546 24.334,32.121 23.435,32.686 C20.977,34.233 18.864,36.190 16.859,38.276 C15.750,39.430 14.698,40.628 13.963,42.068 C13.803,42.382 13.562,42.681 13.651,43.114 C14.671,42.182 15.642,41.224 16.562,40.217 C19.025,37.524 21.677,35.039 24.593,32.849 C25.370,32.267 26.227,31.791 27.205,31.165 ZM19.372,14.581 L19.595,14.650 C19.875,14.018 20.168,13.391 20.434,12.751 C20.691,12.133 20.927,11.504 21.163,10.878 C21.680,9.508 21.688,9.454 21.495,8.770 C20.699,10.786 19.756,12.578 19.372,14.581 Z" class="cls-1"/>
</svg>
