<svg xmlns="http://www.w3.org/2000/svg" xmlns:xlink="http://www.w3.org/1999/xlink" preserveAspectRatio="xMidYMid" width="40" height="39" viewBox="0 0 40 39">
  <defs>
    <style>
      .cls-1 {
        fill: #fff;
        fill-rule: evenodd;
      }
    </style>
  </defs>
  <path d="M17.830,29.648 L17.956,29.648 C18.461,29.648 18.871,30.058 18.871,30.565 C18.871,31.072 18.461,31.482 17.956,31.482 L17.830,31.482 C17.325,31.482 16.915,31.072 16.915,30.565 C16.915,30.058 17.325,29.648 17.830,29.648 L17.830,29.648 ZM12.083,11.358 C11.745,11.735 11.777,12.315 12.153,12.653 C12.328,12.810 12.546,12.887 12.763,12.887 C13.014,12.887 13.264,12.785 13.445,12.582 C14.752,11.121 14.547,8.521 13.536,7.010 C13.090,6.342 12.897,5.340 13.056,4.515 C13.151,4.017 12.826,3.535 12.330,3.440 C11.834,3.344 11.354,3.670 11.259,4.167 C11.011,5.456 11.308,6.973 12.016,8.031 C12.661,8.995 12.694,10.674 12.083,11.358 L12.083,11.358 ZM7.924,11.358 C7.587,11.735 7.619,12.315 7.994,12.653 C8.169,12.810 8.388,12.887 8.605,12.887 C8.856,12.887 9.106,12.785 9.287,12.582 C10.594,11.121 10.389,8.521 9.379,7.010 C8.932,6.343 8.739,5.340 8.898,4.515 C8.993,4.017 8.669,3.535 8.173,3.440 C7.677,3.344 7.197,3.668 7.101,4.167 C6.853,5.456 7.150,6.973 7.858,8.031 C8.503,8.995 8.536,10.674 7.924,11.358 L7.924,11.358 ZM21.436,28.178 L21.562,28.178 C22.068,28.178 22.478,27.767 22.478,27.261 C22.478,26.754 22.068,26.343 21.562,26.343 L21.436,26.343 C20.931,26.343 20.522,26.754 20.522,27.261 C20.522,27.767 20.931,28.178 21.436,28.178 L21.436,28.178 ZM6.500,25.542 C6.500,25.036 6.091,24.624 5.586,24.624 L5.460,24.624 C4.954,24.624 4.544,25.036 4.544,25.542 C4.544,26.048 4.954,26.459 5.460,26.459 L5.586,26.459 C6.091,26.459 6.500,26.048 6.500,25.542 L6.500,25.542 ZM16.796,25.744 L16.922,25.744 C17.427,25.744 17.837,25.334 17.837,24.827 C17.837,24.320 17.427,23.909 16.922,23.909 L16.796,23.909 C16.290,23.909 15.881,24.320 15.881,24.827 C15.881,25.334 16.290,25.744 16.796,25.744 L16.796,25.744 ZM27.703,37.165 L0.915,37.165 C0.410,37.165 -0.000,37.576 -0.000,38.082 C-0.000,38.589 0.410,39.000 0.915,39.000 L27.703,39.000 C28.208,39.000 28.618,38.589 28.618,38.082 C28.618,37.576 28.208,37.165 27.703,37.165 L27.703,37.165 ZM39.756,0.294 C39.583,0.107 39.340,-0.000 39.086,-0.000 L17.820,-0.000 C17.566,-0.000 17.323,0.107 17.149,0.294 C16.976,0.480 16.889,0.732 16.908,0.986 L17.825,13.226 C17.863,13.731 18.303,14.109 18.806,14.071 C19.310,14.033 19.688,13.592 19.650,13.088 L19.393,9.664 C21.665,8.268 25.702,8.656 28.033,10.028 C29.567,10.931 31.640,11.453 33.721,11.461 L33.725,11.461 C34.229,11.461 34.638,11.052 34.640,10.547 C34.642,10.040 34.233,9.628 33.728,9.626 C31.987,9.619 30.204,9.178 28.959,8.446 C26.352,6.912 22.183,6.390 19.245,7.679 L18.806,1.835 L38.099,1.835 L36.160,27.716 L29.628,27.716 C29.124,27.716 28.714,28.127 28.714,28.633 C28.714,29.140 29.124,29.551 29.628,29.551 L36.093,29.551 L36.093,31.571 L26.935,31.571 C26.429,31.571 26.020,31.982 26.020,32.489 C26.020,32.994 26.429,33.406 26.935,33.406 L37.008,33.406 C37.514,33.406 37.923,32.994 37.923,32.489 L37.923,28.668 L39.997,0.986 C40.017,0.731 39.929,0.480 39.756,0.294 L39.756,0.294 ZM0.172,21.325 L0.172,16.906 C0.172,16.399 0.581,15.989 1.087,15.989 L3.783,15.989 L0.293,9.890 C0.042,9.450 0.193,8.890 0.632,8.638 C1.070,8.386 1.629,8.537 1.881,8.978 L5.893,15.989 L27.531,15.989 C28.036,15.989 28.446,16.399 28.446,16.906 L28.446,21.325 C28.446,29.140 22.104,35.498 14.309,35.498 C6.514,35.498 0.172,29.140 0.172,21.325 L0.172,21.325 ZM2.002,21.325 C2.002,28.128 7.523,33.663 14.309,33.663 C21.095,33.663 26.616,28.128 26.616,21.325 L26.616,17.823 L6.942,17.823 L10.598,24.213 C11.904,23.909 13.293,24.479 13.995,25.698 L14.910,27.286 C15.769,28.779 15.257,30.695 13.768,31.557 C12.279,32.418 10.367,31.905 9.508,30.413 L8.594,28.824 C7.893,27.607 8.104,26.109 9.013,25.129 L4.833,17.823 L2.002,17.823 L2.002,21.325 ZM10.178,27.908 L11.093,29.495 C11.448,30.113 12.238,30.324 12.853,29.968 C13.469,29.612 13.680,28.820 13.325,28.203 L12.410,26.615 C12.070,26.024 11.301,25.800 10.697,26.116 C10.683,26.124 10.668,26.132 10.654,26.140 C10.654,26.141 10.653,26.141 10.652,26.142 C10.652,26.142 10.651,26.142 10.651,26.142 C10.651,26.142 10.651,26.142 10.651,26.143 C10.035,26.498 9.823,27.291 10.178,27.908 L10.178,27.908 ZM10.178,27.908 L10.178,27.908 Z" class="cls-1"/>
</svg>
