<svg xmlns="http://www.w3.org/2000/svg" xmlns:xlink="http://www.w3.org/1999/xlink" preserveAspectRatio="xMidYMid" width="80" height="53" viewBox="0 0 80 53">
  <defs>
    <style>
      .cls-1 {
        fill: #fff;
        fill-rule: evenodd;
      }
    </style>
  </defs>
  <path d="M50.368,28.811 C50.564,28.052 50.800,27.355 50.917,26.639 C51.131,25.326 51.259,24.000 51.451,22.682 C51.901,19.593 51.142,16.753 49.691,14.056 C49.395,13.507 49.016,13.004 48.691,12.470 C47.500,10.518 46.258,8.608 44.664,6.946 C43.905,6.155 43.110,5.436 42.136,4.915 C41.323,4.480 40.512,4.030 39.746,3.518 C38.466,2.663 37.102,2.014 35.622,1.598 C35.098,1.451 34.584,1.272 34.061,1.123 C32.224,0.599 30.352,0.275 28.443,0.165 C26.628,0.061 24.811,0.199 22.992,0.030 C20.534,-0.198 18.377,0.907 16.228,1.858 C14.637,2.561 13.245,3.634 11.857,4.689 C9.580,6.421 7.334,8.167 5.611,10.505 C4.145,12.495 2.595,14.402 1.701,16.768 C0.491,19.968 -0.271,23.218 0.090,26.651 C0.661,32.067 2.042,37.229 5.052,41.852 C6.049,43.382 7.109,44.890 8.676,45.889 C9.841,46.632 11.097,47.233 12.323,47.878 C15.242,49.411 18.399,50.088 21.653,50.309 C23.822,50.456 26.001,50.492 28.177,50.328 C28.827,50.280 29.483,50.298 30.131,50.234 C32.577,49.994 34.954,49.451 37.238,48.525 L37.662,48.795 C39.534,50.000 41.354,51.278 43.486,52.039 C46.277,53.034 49.087,53.323 51.976,52.589 C53.328,52.244 54.696,52.067 56.096,52.097 C57.319,52.123 58.545,52.128 59.768,52.083 C60.526,52.055 61.280,51.853 62.037,51.842 C64.187,51.812 66.228,51.325 68.253,50.633 C70.907,49.725 73.168,48.257 74.834,46.019 C76.212,44.170 77.444,42.206 78.651,40.238 C79.080,39.538 79.368,38.696 79.502,37.884 C79.755,36.357 79.889,34.808 79.990,33.263 C80.033,32.596 79.929,31.903 79.791,31.244 C79.386,29.307 78.991,27.372 79.024,25.378 C79.034,24.773 78.849,24.554 78.259,24.420 C77.972,24.355 77.680,24.309 77.410,24.258 C76.989,24.772 76.991,24.788 76.377,24.859 C75.380,24.976 74.351,24.954 73.386,25.194 C70.422,25.933 67.391,26.268 64.392,26.787 C62.464,27.120 60.519,27.349 58.585,27.647 C57.190,27.862 55.804,28.133 54.408,28.344 C53.201,28.526 51.987,28.659 50.776,28.809 C50.648,28.825 50.517,28.811 50.368,28.811 ZM33.684,32.947 C34.295,34.725 34.681,36.592 35.644,38.233 C36.622,39.898 37.615,41.551 38.955,42.968 C40.299,44.389 42.758,46.281 43.538,46.377 C42.445,45.010 41.463,43.661 40.354,42.425 C38.373,40.217 36.773,37.783 35.613,35.056 L34.680,32.886 L35.906,32.798 C35.926,33.234 35.936,33.610 35.963,33.984 C36.074,35.503 36.662,36.829 37.661,37.965 C38.524,38.946 39.419,39.897 40.301,40.861 C41.168,41.806 42.188,42.489 43.462,42.773 C43.905,42.872 44.329,43.056 44.896,43.245 C44.646,42.819 44.349,42.607 44.048,42.430 C42.482,41.509 41.194,40.280 40.008,38.919 C39.135,37.917 38.159,37.010 37.452,35.862 C36.870,34.917 36.602,33.878 36.268,32.769 C36.691,32.711 37.060,32.680 37.420,32.609 C39.234,32.254 41.044,31.885 42.857,31.530 C44.058,31.296 45.263,31.085 46.465,30.854 C47.506,30.654 48.549,30.459 49.584,30.229 C50.915,29.932 52.247,29.653 53.621,29.727 C55.348,29.819 57.037,29.545 58.731,29.269 C60.233,29.024 61.750,28.877 63.252,28.633 C66.527,28.104 69.803,27.574 73.066,26.974 C74.389,26.730 75.707,26.707 77.099,26.662 C77.197,27.336 77.283,27.977 77.385,28.615 C77.531,29.526 77.620,30.455 77.860,31.341 C78.145,32.392 78.129,33.437 78.040,34.493 C77.966,35.387 77.846,36.277 77.742,37.168 C77.640,38.043 77.385,38.868 76.911,39.617 C75.865,41.271 74.850,42.944 73.762,44.570 C72.429,46.560 70.661,48.046 68.401,48.915 C67.564,49.237 66.741,49.597 65.902,49.914 C65.471,50.077 65.027,50.247 64.575,50.309 C62.530,50.592 60.485,50.944 58.428,51.062 C56.506,51.173 54.566,51.060 52.638,50.965 C52.003,50.933 51.340,50.737 50.760,50.464 C49.116,49.693 47.346,49.174 45.837,48.109 C46.898,49.657 48.716,50.103 50.218,51.006 L50.172,51.169 C49.705,51.135 49.234,51.125 48.770,51.065 C45.841,50.691 43.095,49.812 40.642,48.120 C40.152,47.781 39.616,47.510 39.109,47.194 C38.570,46.858 38.156,46.414 37.838,45.850 C37.359,44.998 36.786,44.200 36.307,43.350 C35.870,42.571 35.410,41.785 35.126,40.947 C34.552,39.251 34.080,37.520 33.595,35.796 C33.512,35.500 33.578,35.162 33.568,34.844 C33.559,34.518 33.550,34.193 33.525,33.870 C33.502,33.581 33.458,33.294 33.423,33.005 L33.684,32.947 ZM22.578,8.883 L24.407,7.993 C24.920,8.764 25.673,8.933 26.474,9.037 C27.522,9.172 28.299,9.700 28.709,10.707 C28.791,10.908 28.898,11.100 29.006,11.288 C29.755,12.584 30.128,13.926 29.992,15.473 C29.902,16.501 30.078,17.613 30.399,18.601 C31.013,20.496 30.762,22.280 30.203,24.115 C29.634,25.985 29.177,27.889 28.695,29.784 C28.352,31.134 28.428,32.492 28.858,33.805 C29.203,34.861 29.585,35.917 30.078,36.910 C30.799,38.358 31.148,39.842 31.073,41.462 C30.986,43.344 30.807,45.204 30.269,47.017 C30.218,47.190 30.208,47.375 30.238,47.575 C30.910,46.893 31.269,46.037 31.409,45.136 C31.610,43.849 31.697,42.544 31.787,41.244 C31.906,39.509 31.388,37.924 30.631,36.382 C30.189,35.483 29.811,34.542 29.512,33.586 C29.008,31.969 29.270,30.355 29.717,28.764 C30.203,27.038 30.673,25.308 31.200,23.595 C31.702,21.961 31.797,20.342 31.263,18.705 C30.782,17.231 30.700,15.717 30.834,14.187 C30.893,13.517 30.799,12.901 30.493,12.294 C30.114,11.542 29.805,10.756 29.439,9.997 C28.971,9.025 28.235,8.407 27.115,8.323 C26.441,8.273 25.770,8.205 24.992,8.136 L25.076,6.594 L26.901,5.570 C26.691,5.035 26.349,5.006 25.990,5.106 C25.690,5.189 25.408,5.338 24.988,5.355 C25.061,5.180 25.097,4.974 25.213,4.835 C25.652,4.316 26.097,3.800 26.576,3.320 C27.106,2.790 27.753,2.448 28.499,2.309 C28.633,2.284 28.767,2.259 28.898,2.224 C30.089,1.897 31.248,1.926 32.407,2.413 C33.025,2.674 33.696,2.812 34.344,3.147 C34.184,3.196 34.027,3.270 33.863,3.288 C32.863,3.402 31.859,3.486 30.861,3.615 C29.994,3.728 29.160,3.962 28.446,4.548 C28.630,4.502 28.817,4.466 28.996,4.408 C30.214,4.014 31.471,4.097 32.721,4.105 C33.129,4.107 33.539,4.156 33.945,4.134 C34.785,4.089 35.542,4.302 36.306,4.650 C36.834,4.890 37.455,4.923 38.031,5.064 C38.314,5.132 38.617,5.187 38.861,5.330 C39.678,5.814 40.489,6.310 41.269,6.850 C41.845,7.248 42.419,7.673 42.906,8.172 C45.063,10.383 46.773,12.945 48.389,15.550 C49.540,17.405 50.207,19.467 50.167,21.730 C50.125,24.052 49.906,26.342 49.431,28.613 C49.348,29.013 49.211,29.225 48.781,29.302 C47.604,29.510 46.434,29.758 45.266,30.010 C43.352,30.421 41.450,30.893 39.527,31.256 C37.497,31.641 35.450,31.942 33.370,31.888 C32.463,31.864 32.144,32.221 32.389,33.087 C32.733,34.302 32.863,35.519 32.811,36.781 C32.784,37.450 32.934,38.134 33.068,38.798 C33.276,39.837 33.471,40.887 33.795,41.893 C34.128,42.922 34.591,43.911 35.033,44.901 C35.298,45.496 35.630,46.061 35.925,46.625 C35.323,47.501 28.867,48.630 27.186,48.192 C27.273,47.225 27.365,46.259 27.444,45.290 C27.557,43.902 27.313,42.603 26.609,41.369 C26.045,40.381 25.481,39.359 25.377,38.198 C25.293,37.255 25.309,36.302 25.316,35.353 C25.324,34.104 25.366,32.856 25.396,31.606 C25.431,30.144 25.179,28.718 24.606,27.385 C23.769,25.438 23.954,23.515 24.522,21.566 C24.908,20.238 25.308,18.912 25.646,17.572 C26.121,15.683 25.913,13.843 25.046,12.099 C24.463,10.926 23.757,9.830 22.578,8.883 ZM26.002,48.299 C24.814,48.299 23.704,48.286 22.594,48.302 C20.586,48.331 18.659,47.834 16.720,47.419 C15.270,47.108 13.990,46.363 12.665,45.736 C12.592,45.702 12.527,45.644 12.452,45.617 C10.538,44.941 9.511,43.361 8.542,41.743 C8.327,41.383 8.203,40.928 8.171,40.507 C8.040,38.775 7.865,37.037 7.884,35.303 C7.913,32.639 8.129,29.978 8.777,27.383 C8.958,26.658 9.299,25.943 9.704,25.313 C10.473,24.114 10.907,22.837 11.041,21.427 C11.221,19.534 11.454,17.647 11.653,15.756 C11.850,13.883 12.883,12.551 14.358,11.487 C15.130,10.930 15.870,10.346 16.822,10.086 C17.163,9.993 17.462,9.689 17.739,9.436 C18.031,9.169 18.274,8.847 18.583,8.498 C18.244,8.136 18.398,7.730 18.767,7.467 C19.280,7.101 19.861,6.863 20.560,7.362 C20.121,7.859 19.717,8.399 19.230,8.848 C18.608,9.422 18.224,10.138 17.906,10.882 C16.762,13.558 15.646,16.255 15.247,19.161 C15.074,20.420 15.099,21.707 15.053,22.981 C14.964,25.426 14.959,27.880 14.493,30.291 C14.266,31.461 13.952,32.624 13.559,33.749 C12.432,36.975 12.719,40.111 14.009,43.210 C14.438,44.244 14.904,45.258 15.702,46.068 C16.054,46.424 16.467,46.721 16.853,47.046 L16.994,46.938 C16.961,46.801 16.955,46.649 16.888,46.530 C16.583,45.985 16.271,45.443 15.942,44.913 C14.503,42.592 13.698,40.096 13.779,37.341 C13.816,36.103 14.082,34.914 14.503,33.761 C15.506,31.010 15.824,28.171 15.699,25.263 C15.634,23.741 15.612,22.218 15.604,20.695 C15.596,19.125 16.023,17.626 16.487,16.148 C16.852,14.985 17.338,13.860 17.740,12.708 C17.899,12.253 18.127,11.985 18.641,11.923 C19.382,11.834 19.808,11.392 20.068,10.662 C20.320,9.954 20.756,9.310 21.130,8.649 C21.202,8.522 21.360,8.443 21.521,8.305 C23.296,10.825 25.090,13.257 24.903,16.520 C24.830,17.778 24.551,18.992 24.182,20.191 C23.766,21.544 23.358,22.896 23.285,24.326 C23.245,25.120 23.229,25.918 23.526,26.660 C24.429,28.909 24.518,31.261 24.506,33.636 C24.500,34.914 24.548,36.192 24.597,37.468 C24.647,38.788 24.898,40.092 25.523,41.243 C26.507,43.055 26.467,44.944 26.223,46.880 C26.165,47.337 26.082,47.789 26.002,48.299 ZM17.364,6.595 L13.110,8.559 C11.901,9.120 10.880,9.876 10.218,11.087 C9.994,11.496 9.585,11.825 9.208,12.125 C8.157,12.959 7.001,13.611 5.716,14.027 C5.464,14.108 5.205,14.239 5.009,14.414 C3.961,15.355 3.769,16.618 3.718,17.939 C4.140,17.546 4.369,17.046 4.595,16.545 C4.741,16.223 4.866,15.891 5.035,15.582 C5.262,15.168 5.588,14.880 6.058,14.707 C7.336,14.233 8.528,13.583 9.642,12.794 C10.227,12.380 10.729,11.900 11.056,11.249 C11.408,10.550 11.930,10.007 12.644,9.664 C14.015,9.004 15.382,8.337 16.762,7.697 C17.041,7.568 17.374,7.552 17.760,7.467 C17.576,8.153 17.278,8.562 16.730,8.872 C15.968,9.304 15.215,9.720 14.348,9.901 C14.146,9.944 13.959,10.058 13.722,10.158 L13.974,10.777 C13.589,11.119 13.215,11.476 12.816,11.801 C11.749,12.670 11.194,13.831 10.942,15.141 C10.815,15.804 10.796,16.489 10.747,17.166 C10.633,18.736 10.537,20.307 10.422,21.878 C10.356,22.768 10.026,23.589 9.524,24.298 C8.181,26.194 7.530,28.326 7.255,30.592 C7.059,32.209 6.852,33.829 6.767,35.453 C6.713,36.475 6.842,37.512 6.949,38.536 C7.047,39.478 7.226,40.412 7.386,41.458 C6.735,40.739 6.341,39.959 5.908,39.210 C4.429,36.650 3.355,33.937 2.837,31.014 C2.524,29.250 2.117,27.501 1.864,25.730 C1.543,23.484 2.043,21.305 2.586,19.136 C3.249,16.484 4.424,14.104 6.153,11.977 C7.146,10.755 8.019,9.433 9.293,8.465 C10.180,7.791 11.056,7.098 11.979,6.476 C12.371,6.212 12.866,6.089 13.325,5.940 C13.607,5.848 13.921,5.858 14.203,5.767 C15.192,5.448 16.073,5.620 16.871,6.281 C17.034,6.416 17.230,6.511 17.364,6.595 ZM12.448,5.603 C13.914,4.412 15.440,3.312 17.152,2.482 C18.310,3.333 19.286,4.390 20.722,4.849 L21.241,6.640 L19.201,6.052 L19.207,5.918 L20.506,5.918 C20.109,5.275 19.532,5.394 19.081,5.253 C18.589,5.098 18.062,4.943 17.701,5.615 C17.444,5.491 17.202,5.387 16.971,5.262 C16.202,4.850 15.438,4.836 14.622,5.161 C13.953,5.427 13.243,5.593 12.551,5.804 L12.448,5.603 ZM17.865,2.130 C18.708,1.829 19.541,1.521 20.383,1.239 C20.521,1.193 20.704,1.233 20.853,1.278 C21.752,1.545 22.670,1.548 23.598,1.529 C24.949,1.498 26.301,1.520 27.747,1.520 C27.173,1.965 26.625,2.302 26.195,2.750 C25.779,3.184 25.486,3.734 25.061,4.229 C24.970,3.377 24.578,2.740 24.015,2.159 C23.729,1.865 23.464,1.775 23.087,1.822 C22.549,1.889 22.007,1.918 21.469,1.976 C20.956,2.031 20.631,2.341 20.576,2.873 C20.540,3.217 20.569,3.569 20.569,3.970 L17.865,2.130 ZM21.733,2.775 L23.350,2.115 C23.690,3.003 23.690,3.838 23.633,4.676 C23.591,5.299 23.500,5.917 23.466,6.540 C23.445,6.925 23.269,7.139 22.922,7.242 C22.307,6.584 21.802,4.707 21.733,2.775 ZM3.663,24.232 C4.544,24.407 5.021,24.240 5.339,23.663 C5.407,23.539 5.460,23.302 5.397,23.236 C5.285,23.120 5.056,23.011 4.915,23.048 C4.322,23.201 3.831,23.501 3.663,24.232 ZM3.206,28.073 C3.202,29.037 3.367,29.200 4.125,29.148 C4.368,29.130 4.617,29.127 4.852,29.072 C5.176,28.996 5.497,28.864 5.489,28.453 C5.480,28.030 5.133,27.889 4.814,27.892 C4.289,27.898 3.764,28.005 3.206,28.073 ZM5.025,27.025 C5.172,26.908 5.420,26.789 5.545,26.591 C5.711,26.328 5.485,26.128 5.269,26.007 C4.822,25.756 4.375,25.487 3.896,25.317 C3.645,25.228 3.301,25.271 3.040,25.365 C2.657,25.503 2.623,25.834 2.930,26.123 C3.485,26.642 4.182,26.851 5.025,27.025 ZM39.327,31.106 C39.457,30.656 39.526,30.375 39.619,30.101 C39.802,29.565 39.949,29.010 40.196,28.503 C41.234,26.371 41.222,24.235 40.090,22.181 C39.337,20.815 38.687,19.423 38.259,17.930 C37.842,16.477 37.055,15.342 35.660,14.654 C34.450,14.058 33.707,13.043 33.277,11.784 C33.206,11.578 33.133,11.373 33.053,11.170 C32.612,10.057 32.103,8.980 31.328,8.049 C30.292,6.800 29.033,5.962 27.370,5.841 C28.347,6.322 29.285,6.845 30.082,7.613 C31.334,8.819 32.087,10.311 32.619,11.923 C33.100,13.377 33.929,14.530 35.238,15.336 C36.363,16.030 37.009,17.053 37.357,18.313 C37.734,19.678 38.221,21.007 38.974,22.218 C40.046,23.942 40.072,25.741 39.436,27.616 C39.210,28.280 39.039,28.970 38.913,29.661 C38.833,30.100 38.849,30.571 39.327,31.106 ZM43.477,29.277 C43.860,28.512 43.947,27.708 43.848,26.863 C43.726,25.811 43.581,24.754 43.569,23.698 C43.549,22.069 43.595,20.437 43.684,18.811 C43.791,16.831 43.198,15.171 41.655,13.890 C40.921,13.281 40.446,12.510 40.124,11.621 C39.753,10.595 39.306,9.601 38.603,8.751 C37.910,7.913 37.207,7.082 36.489,6.264 C35.994,5.701 35.375,5.303 34.641,5.124 C33.121,4.755 31.576,4.643 30.021,4.783 C29.366,4.842 28.780,5.101 28.174,5.712 C28.628,5.752 28.934,5.787 29.239,5.808 C30.704,5.906 32.170,5.981 33.631,6.108 C34.596,6.191 35.369,6.658 35.981,7.421 C36.559,8.143 37.217,8.800 37.773,9.537 C38.226,10.138 38.678,10.775 38.958,11.466 C39.525,12.863 40.255,14.079 41.603,14.865 C42.209,15.219 42.520,15.848 42.791,16.482 C43.130,17.278 43.165,18.117 43.147,18.963 C43.121,20.186 43.032,21.412 43.081,22.631 C43.170,24.848 43.340,27.062 43.477,29.277 ZM75.837,37.461 L75.175,39.053 C75.521,38.572 76.014,38.149 75.837,37.461 ZM75.837,37.460 C75.915,37.444 76.043,37.453 76.065,37.408 C76.496,36.548 76.986,35.701 76.824,34.679 C76.735,35.691 76.254,36.564 75.837,37.460 ZM71.617,39.930 C72.234,39.268 72.587,38.495 72.609,37.581 C72.007,38.250 71.495,38.955 71.617,39.930 ZM76.823,34.677 C76.942,34.583 77.134,34.510 77.166,34.392 C77.277,33.980 77.362,33.555 77.405,33.130 C77.521,32.003 77.166,30.940 76.916,29.864 C76.904,29.812 76.828,29.774 76.746,29.696 C76.578,30.275 76.746,30.765 76.869,31.258 C77.154,32.402 77.194,33.542 76.823,34.677 ZM69.382,32.671 C70.033,33.492 70.626,33.438 71.458,32.484 C70.869,31.529 69.972,31.609 69.382,32.671 ZM66.211,39.390 L67.313,40.548 C67.932,40.137 68.540,39.890 68.875,39.236 C68.712,39.020 68.585,38.772 68.388,38.606 C68.086,38.351 67.816,38.202 67.328,38.454 C66.888,38.682 66.720,39.099 66.211,39.390 ZM60.173,36.944 C60.005,37.075 59.792,37.158 59.739,37.301 C59.651,37.541 59.586,37.841 59.650,38.077 C59.855,38.835 60.335,39.416 60.982,39.859 C61.271,40.056 61.498,39.891 61.721,39.734 C61.951,39.574 62.034,39.368 61.867,39.108 C61.488,38.518 61.124,37.916 60.723,37.341 C60.609,37.179 60.385,37.092 60.173,36.944 ZM46.402,36.763 L46.757,36.997 C47.324,37.400 47.569,37.324 47.817,36.673 C47.963,36.295 48.149,35.929 48.263,35.541 C48.393,35.103 48.506,34.651 48.547,34.197 C48.587,33.751 48.314,33.609 47.931,33.841 C47.773,33.937 47.636,34.076 47.508,34.214 C46.863,34.910 46.453,35.713 46.402,36.763 ZM53.931,41.743 C53.849,41.229 53.794,40.777 53.700,40.332 C53.600,39.857 53.479,39.385 53.335,38.921 C53.234,38.593 53.030,38.317 52.632,38.386 C52.268,38.448 52.117,38.731 52.036,39.074 C51.842,39.905 51.985,40.690 52.341,41.443 C52.630,42.053 53.348,42.181 53.931,41.743 ZM60.802,34.402 C60.802,33.764 60.842,33.171 60.789,32.585 C60.748,32.131 60.627,31.675 60.471,31.245 C60.369,30.963 60.118,30.743 59.768,30.804 C59.474,30.855 59.332,31.055 59.247,31.353 C58.985,32.263 59.129,33.139 59.447,33.991 C59.658,34.556 60.118,34.676 60.802,34.402 ZM65.948,37.078 C65.216,36.362 64.524,35.646 63.779,34.989 C63.598,34.828 63.197,34.751 62.979,34.838 C62.662,34.964 62.737,35.339 62.812,35.634 C63.033,36.508 63.492,37.214 64.303,37.652 C65.143,38.107 65.276,38.066 65.948,37.078 ZM54.894,37.157 C55.414,36.320 55.591,35.370 55.643,34.392 C55.662,34.031 55.577,33.678 55.144,33.565 C54.774,33.469 54.491,33.635 54.244,34.064 C53.871,34.713 53.677,35.394 53.713,36.156 C53.755,37.024 53.894,37.174 54.894,37.157 ZM54.236,31.843 C54.124,31.685 54.029,31.401 53.856,31.343 C53.640,31.270 53.283,31.292 53.123,31.430 C52.264,32.167 51.875,33.184 51.636,34.253 C51.557,34.609 51.850,34.858 52.151,35.001 C52.441,35.138 52.608,34.896 52.736,34.693 C53.181,33.985 53.618,33.272 54.036,32.547 C54.138,32.369 54.155,32.140 54.236,31.843 ZM68.967,34.647 C68.387,33.577 67.631,32.699 66.823,31.861 C66.768,31.804 66.692,31.741 66.620,31.734 C66.394,31.710 66.097,31.622 65.957,31.728 C65.820,31.832 65.771,32.156 65.804,32.364 C65.971,33.417 66.588,34.187 67.424,34.807 C68.066,35.284 68.232,35.278 68.967,34.647 ZM58.947,40.349 C58.869,39.647 58.822,39.130 58.753,38.615 C58.675,38.028 58.613,37.434 58.468,36.863 C58.423,36.686 58.148,36.503 57.944,36.448 C57.665,36.371 57.408,36.523 57.289,36.809 C57.196,37.034 57.119,37.268 57.059,37.504 C56.882,38.193 56.794,38.895 56.947,39.597 C57.065,40.140 57.405,40.538 57.954,40.660 C58.409,40.761 58.820,40.634 58.947,40.349 ZM46.368,44.265 L46.289,44.440 C46.615,44.602 46.936,44.774 47.267,44.925 C48.033,45.273 48.803,45.612 49.573,45.951 C51.212,46.673 52.845,47.409 54.496,48.102 C54.889,48.267 55.339,48.313 55.768,48.369 C56.253,48.432 56.744,48.464 57.234,48.474 C58.510,48.501 59.789,48.621 61.059,48.335 C61.558,48.222 62.081,48.224 62.590,48.148 C63.232,48.052 63.893,47.999 64.504,47.800 C65.303,47.542 66.046,47.116 66.839,46.837 C68.943,46.099 70.647,44.749 72.280,43.306 C72.999,42.671 73.547,41.870 73.915,41.065 C72.876,41.858 71.820,42.703 70.723,43.493 C68.815,44.871 66.664,45.807 64.534,46.768 C63.821,47.090 63.081,47.376 62.325,47.571 C60.351,48.077 58.337,48.060 56.324,47.877 C55.705,47.820 55.060,47.775 54.485,47.567 C52.802,46.958 51.143,46.281 49.485,45.608 C48.437,45.183 47.407,44.714 46.368,44.265 ZM44.863,41.832 C45.523,42.639 46.356,43.069 47.242,43.438 C48.320,43.886 49.393,44.348 50.448,44.849 C52.892,46.009 55.449,46.491 58.145,46.215 C59.686,46.057 61.228,45.904 62.768,45.733 C64.157,45.579 65.501,45.257 66.749,44.606 C67.888,44.011 68.897,43.261 69.633,42.170 C68.804,42.561 67.997,42.987 67.218,43.459 C65.870,44.275 64.438,44.819 62.855,44.925 C61.579,45.010 60.296,45.036 59.031,45.196 C56.462,45.522 53.967,45.203 51.549,44.372 C49.320,43.606 47.138,42.703 44.863,41.832 Z" class="cls-1"/>
</svg>
