<svg xmlns="http://www.w3.org/2000/svg" xmlns:xlink="http://www.w3.org/1999/xlink" preserveAspectRatio="xMidYMid" width="133.809" height="68.9" viewBox="0 0 133.809 68.9">
  <defs>
    <style>
      .cls-1 {
        fill: #000000;
      }

      .cls-1, .cls-2 {
        fill-rule: evenodd;
      }

      .cls-2 {
        fill: #7dbe00;
      }
    </style>
  </defs>
  <g>
    <path d="M126.840,45.024 C126.306,44.438 125.590,44.145 124.692,44.145 C122.986,44.145 121.990,45.232 121.703,47.406 C121.612,48.097 121.567,49.047 121.567,50.258 C121.567,52.381 121.821,53.852 122.328,54.672 C122.836,55.492 123.643,55.902 124.750,55.902 C125.675,55.902 126.391,55.652 126.899,55.151 C127.406,54.650 127.654,53.949 127.641,53.051 L133.813,53.051 C133.813,55.369 132.983,57.270 131.323,58.754 C129.662,60.238 127.524,60.981 124.907,60.981 C121.833,60.981 119.412,60.017 117.641,58.090 C115.870,56.163 114.985,53.494 114.985,50.082 L114.985,49.809 C114.985,47.673 115.378,45.789 116.166,44.154 C116.954,42.521 118.090,41.264 119.574,40.385 C121.059,39.506 122.817,39.067 124.848,39.067 C127.595,39.067 129.776,39.828 131.391,41.352 C133.005,42.875 133.813,44.939 133.813,47.543 L127.641,47.543 C127.641,46.449 127.374,45.610 126.840,45.024 ZM105.156,39.457 L111.758,39.457 L111.758,60.590 L105.156,60.590 L105.156,39.457 ZM94.129,47.250 C94.129,46.183 93.914,45.398 93.485,44.897 C93.055,44.396 92.274,44.145 91.141,44.145 C89.852,44.145 88.895,44.653 88.270,45.668 L88.270,60.590 L81.688,60.590 L81.688,39.457 L87.860,39.457 L88.074,41.938 C89.533,40.024 91.544,39.067 94.110,39.067 C96.310,39.067 97.954,39.724 99.041,41.039 C100.128,42.355 100.692,44.334 100.731,46.977 L100.731,60.590 L94.129,60.590 L94.129,47.250 ZM72.094,58.695 C70.883,60.219 69.190,60.981 67.016,60.981 C65.024,60.981 63.331,60.379 61.938,59.174 C60.544,57.970 59.848,56.456 59.848,54.633 C59.848,52.341 60.694,50.610 62.387,49.438 C64.079,48.266 66.540,47.680 69.770,47.680 L71.801,47.680 L71.801,46.561 C71.801,44.611 70.961,43.637 69.282,43.637 C67.719,43.637 66.938,44.409 66.938,45.953 L60.356,45.953 C60.356,43.911 61.225,42.253 62.963,40.979 C64.701,39.704 66.918,39.067 69.614,39.067 C72.309,39.067 74.438,39.724 76.000,41.039 C77.563,42.355 78.364,44.158 78.403,46.449 L78.403,55.805 C78.429,57.745 78.728,59.230 79.301,60.258 L79.301,60.590 L72.719,60.590 C72.485,60.160 72.276,59.529 72.094,58.695 ZM71.801,51.195 L69.887,51.195 C67.595,51.195 66.449,52.224 66.449,54.281 C66.449,54.881 66.651,55.365 67.055,55.736 C67.458,56.108 67.973,56.293 68.598,56.293 C69.418,56.293 70.098,56.117 70.639,55.766 C71.179,55.414 71.567,55.017 71.801,54.574 L71.801,51.195 ZM52.024,67.807 C50.383,68.542 48.482,68.910 46.321,68.910 C44.771,68.910 43.270,68.617 41.819,68.031 C40.367,67.445 39.257,66.684 38.489,65.746 L41.242,61.879 C42.466,63.324 44.081,64.047 46.086,64.047 C49.003,64.047 50.461,62.549 50.461,59.555 L50.461,58.891 C49.198,60.284 47.603,60.981 45.676,60.981 C43.098,60.981 41.014,59.994 39.426,58.022 C37.837,56.049 37.043,53.409 37.043,50.102 L37.043,49.867 C37.043,47.732 37.395,45.844 38.098,44.203 C38.801,42.563 39.810,41.297 41.125,40.404 C42.440,39.513 43.970,39.067 45.715,39.067 C47.915,39.067 49.634,39.809 50.871,41.293 L51.106,39.457 L57.082,39.457 L57.082,59.789 C57.082,61.651 56.649,63.269 55.783,64.643 C54.917,66.016 53.664,67.071 52.024,67.807 ZM50.461,45.590 C49.823,44.627 48.801,44.145 47.395,44.145 C46.223,44.145 45.305,44.669 44.641,45.717 C43.977,46.765 43.645,48.285 43.645,50.277 C43.645,52.009 43.970,53.380 44.621,54.389 C45.272,55.398 46.184,55.902 47.356,55.902 C48.775,55.902 49.810,55.427 50.461,54.477 L50.461,45.590 ZM33.430,45.258 C31.360,45.258 30.032,45.909 29.446,47.211 L29.446,60.590 L22.864,60.590 L22.864,39.457 L29.035,39.457 L29.250,42.172 C30.357,40.102 31.900,39.067 33.879,39.067 C34.582,39.067 35.194,39.145 35.715,39.301 L35.598,45.414 L33.430,45.258 ZM10.199,60.981 C7.192,60.981 4.776,60.079 2.953,58.276 C1.130,56.472 0.147,54.028 0.004,50.942 L-0.015,49.828 C-0.015,47.719 0.395,45.841 1.215,44.194 C2.035,42.547 3.214,41.280 4.750,40.395 C6.287,39.509 8.090,39.067 10.160,39.067 C13.324,39.067 15.818,40.047 17.641,42.006 C19.464,43.966 20.375,46.632 20.375,50.004 L20.375,50.238 C20.375,53.533 19.460,56.147 17.631,58.080 C15.802,60.014 13.324,60.981 10.199,60.981 ZM13.793,49.828 C13.793,46.039 12.582,44.145 10.160,44.145 C7.960,44.145 6.768,45.779 6.586,49.047 L6.567,50.238 C6.567,52.192 6.872,53.624 7.485,54.535 C8.097,55.447 9.001,55.902 10.199,55.902 C12.543,55.902 13.741,54.099 13.793,50.492 L13.793,49.828 Z" class="cls-1"/>
    <path d="M108.245,35.993 L107.982,35.577 C107.788,35.269 107.584,34.947 107.382,34.623 C106.297,32.878 104.936,30.545 104.042,27.971 C103.320,25.895 102.889,23.951 102.723,22.029 C102.572,20.290 102.740,18.539 103.221,16.825 C103.506,15.809 103.823,14.786 104.130,13.798 C104.307,13.229 104.483,12.660 104.655,12.091 C104.775,11.692 104.878,11.310 104.966,10.941 C104.937,11.028 104.908,11.115 104.878,11.203 C104.537,12.190 104.170,13.184 103.815,14.145 C103.554,14.850 103.294,15.555 103.042,16.263 C102.529,17.699 102.204,19.141 102.074,20.549 C101.978,21.594 102.030,22.729 102.233,24.022 C102.519,25.837 103.062,27.656 103.893,29.583 C103.907,29.615 103.943,29.708 103.943,29.708 L103.825,30.170 L103.770,30.216 L103.217,30.188 C103.086,30.053 102.953,29.920 102.820,29.786 C102.526,29.493 102.222,29.189 101.940,28.867 C100.003,26.649 98.713,24.131 98.106,21.381 C97.730,19.676 97.814,17.852 98.362,15.803 C98.872,13.898 99.715,12.093 100.459,10.500 L100.607,10.184 C101.246,8.819 101.907,7.408 102.335,5.945 C102.652,4.861 102.774,3.859 102.706,2.882 C102.659,2.203 102.488,1.521 102.199,0.853 C102.175,0.800 102.066,0.534 102.066,0.534 L102.547,-0.016 L102.669,0.016 C102.758,0.039 102.833,0.059 102.907,0.083 C104.388,0.559 105.785,1.392 107.180,2.630 C109.940,5.078 111.896,8.002 112.995,11.317 C114.265,15.151 113.867,18.878 111.811,22.393 C111.431,23.044 111.013,23.681 110.609,24.297 C110.289,24.785 109.959,25.289 109.652,25.793 C109.145,26.624 108.624,27.478 108.227,28.357 C107.479,30.012 107.567,31.744 108.490,33.505 C108.573,33.664 108.662,33.821 108.754,33.980 C108.851,33.547 108.947,33.130 109.060,32.715 C109.166,32.325 109.284,31.949 109.413,31.588 L109.038,31.830 L108.972,31.825 L108.589,31.419 C108.589,31.282 108.586,31.145 108.584,31.006 C108.578,30.692 108.572,30.367 108.596,30.040 C108.659,29.186 108.871,28.307 109.244,27.352 C109.786,25.963 110.672,24.920 111.876,24.252 C112.536,23.885 113.230,23.570 113.902,23.266 C114.208,23.127 114.514,22.988 114.818,22.844 C115.016,22.750 115.215,22.659 115.414,22.569 C115.865,22.362 116.330,22.150 116.761,21.909 C117.608,21.435 118.151,20.779 118.421,19.903 L119.170,19.836 C119.208,19.908 119.245,19.976 119.280,20.040 C119.354,20.176 119.424,20.305 119.484,20.445 C119.837,21.266 120.024,22.184 120.057,23.253 C120.103,24.783 119.857,26.230 119.326,27.554 C118.419,29.812 116.727,31.277 114.297,31.909 C114.066,31.969 113.834,32.027 113.602,32.084 C113.002,32.234 112.381,32.389 111.793,32.583 C110.499,33.008 109.881,33.818 109.669,35.371 C109.678,35.387 109.688,35.405 109.698,35.423 C109.727,35.476 109.755,35.528 109.776,35.580 L109.420,36.143 L108.609,36.183 L108.245,35.993 Z" class="cls-2"/>
  </g>
</svg>
