<svg xmlns="http://www.w3.org/2000/svg" xmlns:xlink="http://www.w3.org/1999/xlink" preserveAspectRatio="xMidYMid" width="45" height="45" viewBox="0 0 45 45">
  <defs>
    <style>
      .cls-1 {
        fill: #fff;
        fill-rule: evenodd;
      }
    </style>
  </defs>
  <path d="M19.834,10.497 C21.567,12.230 23.801,13.266 25.807,13.266 C27.123,13.266 28.252,12.832 29.073,12.011 C30.141,10.942 30.548,9.366 30.217,7.574 C29.905,5.878 28.961,4.172 27.559,2.769 C25.825,1.036 23.592,-0.000 21.586,-0.000 C20.271,-0.000 19.142,0.434 18.321,1.255 C17.252,2.324 16.846,3.900 17.176,5.692 C17.488,7.388 18.432,9.094 19.834,10.497 ZM26.543,3.785 C27.742,4.984 28.545,6.422 28.805,7.833 C28.990,8.836 28.878,9.727 28.493,10.415 L23.818,5.737 C23.537,5.458 23.083,5.458 22.802,5.737 C22.521,6.018 22.521,6.473 22.802,6.754 L27.479,11.432 C27.009,11.693 26.443,11.829 25.808,11.829 C24.173,11.829 22.320,10.951 20.850,9.481 C19.651,8.282 18.848,6.844 18.588,5.433 C18.404,4.429 18.515,3.539 18.900,2.850 L20.771,4.722 C20.911,4.863 21.095,4.933 21.279,4.933 C21.463,4.933 21.647,4.863 21.787,4.722 C22.068,4.442 22.068,3.987 21.787,3.706 L19.915,1.835 C20.384,1.573 20.950,1.437 21.586,1.437 C23.220,1.437 25.074,2.314 26.543,3.785 ZM44.282,40.212 L3.112,40.212 C2.715,40.212 2.394,40.533 2.394,40.930 C2.394,41.327 2.715,41.648 3.112,41.648 L3.527,41.648 L3.942,43.098 C4.246,44.164 5.354,45.000 6.463,45.000 L40.931,45.000 C42.040,45.000 43.147,44.164 43.452,43.098 L43.866,41.648 L44.282,41.648 C44.678,41.648 45.000,41.327 45.000,40.930 C45.000,40.533 44.678,40.212 44.282,40.212 ZM42.071,42.702 C41.943,43.153 41.399,43.563 40.931,43.563 L6.463,43.563 C5.995,43.563 5.451,43.153 5.322,42.702 L5.021,41.648 L42.373,41.648 L42.071,42.702 ZM8.378,34.335 L12.268,34.335 C15.306,37.426 19.352,39.124 23.697,39.124 C32.540,39.124 39.734,31.928 39.734,23.083 L39.734,15.420 C39.734,15.024 39.412,14.702 39.016,14.702 L8.378,14.702 C7.981,14.702 7.660,15.024 7.660,15.420 L7.660,17.606 C5.692,17.771 3.865,18.617 2.453,20.030 C0.871,21.613 0.000,23.717 0.000,25.956 C0.000,28.194 0.871,30.298 2.454,31.881 C4.036,33.464 6.140,34.335 8.378,34.335 ZM3.469,21.046 C4.780,19.735 6.523,19.012 8.378,19.012 C8.774,19.012 9.096,18.691 9.096,18.293 L9.096,16.139 L38.298,16.139 L38.298,23.083 C38.298,31.136 31.748,37.687 23.697,37.687 C19.646,37.687 15.881,36.067 13.094,33.124 C12.959,32.980 12.770,32.899 12.573,32.899 L8.378,32.899 C6.524,32.899 4.781,32.177 3.469,30.866 C2.158,29.554 1.436,27.810 1.436,25.956 C1.436,24.101 2.158,22.357 3.469,21.046 ZM23.697,36.251 C26.693,36.251 29.517,35.266 31.866,33.402 C32.176,33.156 32.229,32.703 31.982,32.393 C31.736,32.082 31.284,32.030 30.973,32.277 C28.881,33.937 26.365,34.814 23.697,34.814 C17.229,34.814 11.968,29.552 11.968,23.083 L11.968,19.040 C12.908,19.120 13.459,19.357 14.077,19.624 C14.870,19.965 15.769,20.353 17.473,20.353 C19.177,20.353 20.075,19.965 20.869,19.624 C21.630,19.296 22.289,19.012 23.696,19.012 C25.104,19.012 25.762,19.296 26.524,19.624 C27.317,19.965 28.216,20.353 29.920,20.353 C31.624,20.353 32.523,19.965 33.316,19.624 C33.935,19.357 34.485,19.120 35.426,19.040 L35.426,23.083 C35.426,25.751 34.548,28.269 32.888,30.361 C32.642,30.672 32.693,31.124 33.004,31.371 C33.315,31.618 33.766,31.565 34.013,31.254 C35.877,28.905 36.862,26.080 36.862,23.083 L36.862,18.293 C36.862,18.103 36.786,17.921 36.651,17.785 C36.517,17.652 36.334,17.575 36.144,17.575 C34.440,17.575 33.540,17.963 32.748,18.304 C31.986,18.632 31.328,18.917 29.920,18.917 C28.512,18.917 27.854,18.632 27.092,18.304 C26.299,17.963 25.400,17.575 23.696,17.575 C21.992,17.575 21.093,17.963 20.300,18.304 C19.539,18.632 18.881,18.917 17.473,18.917 C16.065,18.917 15.407,18.632 14.646,18.304 C13.853,17.963 12.954,17.575 11.250,17.575 C10.854,17.575 10.532,17.897 10.532,18.293 L10.532,23.083 C10.532,30.343 16.438,36.251 23.697,36.251 ZM8.378,31.462 L10.428,31.462 C10.684,31.462 10.921,31.325 11.049,31.103 C11.178,30.880 11.178,30.606 11.049,30.384 C9.771,28.175 9.096,25.650 9.096,23.083 L9.096,21.167 C9.096,20.770 8.774,20.448 8.378,20.448 C6.907,20.448 5.524,21.021 4.485,22.062 C3.445,23.101 2.872,24.485 2.872,25.956 C2.872,27.427 3.445,28.809 4.485,29.850 C5.524,30.890 6.907,31.462 8.378,31.462 ZM5.500,23.077 C6.097,22.481 6.846,22.092 7.660,21.948 L7.660,23.083 C7.660,25.493 8.202,27.870 9.236,30.026 L8.378,30.026 C7.291,30.026 6.269,29.603 5.501,28.834 C4.732,28.065 4.309,27.043 4.309,25.956 C4.309,24.868 4.732,23.846 5.500,23.077 Z" class="cls-1"/>
</svg>
